<svg xmlns="http://www.w3.org/2000/svg" viewBox="0 0 1929.59 112.339" id="about-bg">
  <g  transform="translate(0.501 -1468.5)">
    <path  d="M989.558,763.339c-8.8,0-13.1-4.778-17.665-9.836l0,0c-4.42-4.9-8.991-9.974-17.888-10.165l.057,0,.465,0c9.244,0,13.9,5.17,18.41,10.171,4.474,4.962,8.7,9.65,17.144,9.835C989.9,763.337,989.729,763.339,989.558,763.339Zm-72.161,0c-8.8,0-13.106-4.78-17.668-9.841-4.507-5-9.168-10.171-18.411-10.171s-13.9,5.17-18.409,10.171c-4.563,5.061-8.873,9.841-17.67,9.841s-13.1-4.78-17.665-9.84c-4.507-5-9.166-10.171-18.41-10.171s-13.9,5.17-18.408,10.171c-4.561,5.061-8.87,9.841-17.665,9.841s-13.1-4.778-17.665-9.836l0,0c-4.507-5-9.168-10.171-18.41-10.171s-13.9,5.17-18.411,10.171l0,0c-4.561,5.059-8.869,9.836-17.664,9.836s-13.1-4.779-17.666-9.839c-4.506-5-9.166-10.172-18.41-10.172s-13.9,5.17-18.409,10.171c-4.562,5.061-8.871,9.841-17.667,9.841s-13.105-4.78-17.666-9.84c-4.507-5-9.166-10.171-18.411-10.171S578.8,748.5,574.3,753.5c-4.562,5.061-8.87,9.841-17.667,9.841s-13.1-4.778-17.663-9.837c-4.508-5-9.169-10.174-18.412-10.174s-13.9,5.17-18.409,10.171c-4.563,5.061-8.873,9.841-17.668,9.841s-13.1-4.78-17.666-9.84c-4.507-5-9.166-10.171-18.408-10.171S434.5,748.5,430,753.5c-4.563,5.061-8.872,9.841-17.666,9.841s-13.1-4.779-17.662-9.838c-4.507-5-9.167-10.174-18.41-10.174s-13.9,5.17-18.407,10.171l0,0c-4.56,5.059-8.867,9.836-17.66,9.836s-13.1-4.779-17.664-9.839c-4.507-5-9.168-10.172-18.408-10.172s-13.9,5.17-18.41,10.171c-4.562,5.061-8.87,9.841-17.667,9.841s-13.1-4.779-17.664-9.839c-4.505-5-9.164-10.172-18.408-10.172s-13.9,5.17-18.4,10.171c-4.561,5.061-8.869,9.841-17.664,9.841s-13.1-4.78-17.665-9.84c-4.507-5-9.166-10.171-18.409-10.171s-13.9,5.17-18.408,10.171c-4.562,5.061-8.87,9.841-17.666,9.841s-13.1-4.78-17.666-9.841c-4.506-5-9.164-10.171-18.409-10.171s-13.9,5.17-18.408,10.171c-4.562,5.061-8.872,9.841-17.667,9.841s-13.1-4.779-17.665-9.839c-4.506-5-9.166-10.172-18.41-10.172a19.342,19.342,0,0,0-9.09,2.1A25.106,25.106,0,0,0,0,750.4V652H939v97.363c-1.389,1.314-2.682,2.748-3.933,4.136C930.5,758.559,926.194,763.339,917.4,763.339Z" transform="translate(0 817)" fill="#efefef" stroke="rgba(0,0,0,0)" stroke-width="1"/>
    <path  d="M989.558,763.339c-8.8,0-13.1-4.778-17.665-9.836l0,0c-4.42-4.9-8.991-9.974-17.888-10.165l.057,0,.465,0c9.244,0,13.9,5.17,18.41,10.171,4.474,4.962,8.7,9.65,17.144,9.835C989.9,763.337,989.729,763.339,989.558,763.339Zm-72.161,0c-8.8,0-13.106-4.78-17.668-9.841-4.507-5-9.168-10.171-18.411-10.171s-13.9,5.17-18.409,10.171c-4.563,5.061-8.873,9.841-17.67,9.841s-13.1-4.78-17.665-9.84c-4.507-5-9.166-10.171-18.41-10.171s-13.9,5.17-18.408,10.171c-4.561,5.061-8.87,9.841-17.665,9.841s-13.1-4.778-17.665-9.836l0,0c-4.507-5-9.168-10.171-18.41-10.171s-13.9,5.17-18.411,10.171l0,0c-4.561,5.059-8.869,9.836-17.664,9.836s-13.1-4.779-17.666-9.839c-4.506-5-9.166-10.172-18.41-10.172s-13.9,5.17-18.409,10.171c-4.562,5.061-8.871,9.841-17.667,9.841s-13.105-4.78-17.666-9.84c-4.507-5-9.166-10.171-18.411-10.171S578.8,748.5,574.3,753.5c-4.562,5.061-8.87,9.841-17.667,9.841s-13.1-4.778-17.663-9.837c-4.508-5-9.169-10.174-18.412-10.174s-13.9,5.17-18.409,10.171c-4.563,5.061-8.873,9.841-17.668,9.841s-13.1-4.78-17.666-9.84c-4.507-5-9.166-10.171-18.408-10.171S434.5,748.5,430,753.5c-4.563,5.061-8.872,9.841-17.666,9.841s-13.1-4.779-17.662-9.838c-4.507-5-9.167-10.174-18.41-10.174s-13.9,5.17-18.407,10.171l0,0c-4.56,5.059-8.867,9.836-17.66,9.836s-13.1-4.779-17.664-9.839c-4.507-5-9.168-10.172-18.408-10.172s-13.9,5.17-18.41,10.171c-4.562,5.061-8.87,9.841-17.667,9.841s-13.1-4.779-17.664-9.839c-4.505-5-9.164-10.172-18.408-10.172s-13.9,5.17-18.4,10.171c-4.561,5.061-8.869,9.841-17.664,9.841s-13.1-4.78-17.665-9.84c-4.507-5-9.166-10.171-18.409-10.171s-13.9,5.17-18.408,10.171c-4.562,5.061-8.87,9.841-17.666,9.841s-13.1-4.78-17.666-9.841c-4.506-5-9.164-10.171-18.409-10.171s-13.9,5.17-18.408,10.171c-4.562,5.061-8.872,9.841-17.667,9.841s-13.1-4.779-17.665-9.839c-4.506-5-9.166-10.172-18.41-10.172a19.342,19.342,0,0,0-9.09,2.1A25.106,25.106,0,0,0,0,750.4V652H939v97.363c-1.389,1.314-2.682,2.748-3.933,4.136C930.5,758.559,926.194,763.339,917.4,763.339Z" transform="translate(939 817)" fill="#efefef" stroke="rgba(0,0,0,0)" stroke-width="1"/>
  </g>
</svg>
