<svg xmlns="http://www.w3.org/2000/svg" width="1933.154" height="369.339" viewBox="0 0 1933.154 369.339">
  <g id="グループ化_49" data-name="グループ化 49" transform="translate(0 -1211)">
    <g id="グループ化_7" data-name="グループ化 7" transform="translate(324.438 329.474)">
      <path id="パス_106" data-name="パス 106" d="M-308.914,1230.853c9.241,0,13.9,5.17,18.409,10.171,4.562,5.061,8.87,9.841,17.666,9.841s13.1-4.78,17.667-9.841c4.507-5,9.167-10.171,18.408-10.171s13.9,5.17,18.409,10.171c4.562,5.061,8.871,9.841,17.666,9.841s13.1-4.78,17.666-9.841c4.507-5,9.167-10.171,18.409-10.171s13.9,5.17,18.408,10.171c4.561,5.061,8.87,9.841,17.666,9.841s13.1-4.78,17.663-9.841c4.506-5,9.166-10.171,18.4-10.171s13.9,5.17,18.407,10.171c4.562,5.061,8.87,9.841,17.665,9.841s13.106-4.78,17.667-9.841c4.507-5,9.168-10.171,18.41-10.171s13.9,5.17,18.407,10.171c4.561,5.061,8.869,9.841,17.665,9.841s13.1-4.78,17.664-9.841c4.507-5,9.167-10.171,18.407-10.171s13.9,5.17,18.407,10.171c4.562,5.061,8.87,9.841,17.665,9.841s13.1-4.78,17.666-9.841c4.506-5,9.166-10.171,18.407-10.171s13.9,5.17,18.408,10.171c4.561,5.061,8.87,9.841,17.666,9.841s13.1-4.78,17.668-9.841c4.507-5,9.168-10.171,18.41-10.171s13.9,5.17,18.408,10.171c4.562,5.061,8.87,9.841,17.666,9.841s13.106-4.78,17.667-9.841c4.507-5,9.168-10.171,18.409-10.171s13.9,5.17,18.41,10.171c4.561,5.061,8.87,9.841,17.666,9.841s13.105-4.78,17.667-9.841c4.506-5,9.168-10.171,18.409-10.171s13.9,5.17,18.409,10.171c4.562,5.061,8.87,9.841,17.667,9.841s13.105-4.78,17.668-9.841c4.508-5,9.169-10.171,18.411-10.171s13.9,5.17,18.41,10.171c4.563,5.061,8.871,9.841,17.669,9.841s13.1-4.78,17.665-9.841c4.507-5,9.167-10.171,18.408-10.171s13.9,5.17,18.409,10.171c4.561,5.061,8.87,9.841,17.666,9.841s13.106-4.78,17.669-9.841c4.506-5,9.168-10.171,18.41-10.171s13.9,5.17,18.411,10.171c4.562,5.061,8.871,9.841,17.668,9.841s13.107-4.78,17.67-9.841c4.508-5,9.169-10.171,18.411-10.171s13.9,5.17,18.411,10.171c4.563,5.061,8.871,9.841,17.669,9.841a20.371,20.371,0,0,0,4.6-.5V881.526H-324.438v356.4C-320.668,1234.093-316.226,1230.853-308.914,1230.853Z" fill="#efefef"/>
    </g>
    <g id="グループ化_8" data-name="グループ化 8" transform="translate(1263.438 329.474)">
      <path id="パス_106-2" data-name="パス 106" d="M-308.914,1230.853c9.241,0,13.9,5.17,18.409,10.171,4.562,5.061,8.87,9.841,17.666,9.841s13.1-4.78,17.667-9.841c4.507-5,9.167-10.171,18.408-10.171s13.9,5.17,18.409,10.171c4.562,5.061,8.871,9.841,17.666,9.841s13.1-4.78,17.666-9.841c4.507-5,9.167-10.171,18.409-10.171s13.9,5.17,18.408,10.171c4.561,5.061,8.87,9.841,17.666,9.841s13.1-4.78,17.663-9.841c4.506-5,9.166-10.171,18.4-10.171s13.9,5.17,18.407,10.171c4.562,5.061,8.87,9.841,17.665,9.841s13.106-4.78,17.667-9.841c4.507-5,9.168-10.171,18.41-10.171s13.9,5.17,18.407,10.171c4.561,5.061,8.869,9.841,17.665,9.841s13.1-4.78,17.664-9.841c4.507-5,9.167-10.171,18.407-10.171s13.9,5.17,18.407,10.171c4.562,5.061,8.87,9.841,17.665,9.841s13.1-4.78,17.666-9.841c4.506-5,9.166-10.171,18.407-10.171s13.9,5.17,18.408,10.171c4.561,5.061,8.87,9.841,17.666,9.841s13.1-4.78,17.668-9.841c4.507-5,9.168-10.171,18.41-10.171s13.9,5.17,18.408,10.171c4.562,5.061,8.87,9.841,17.666,9.841s13.106-4.78,17.667-9.841c4.507-5,9.168-10.171,18.409-10.171s13.9,5.17,18.41,10.171c4.561,5.061,8.87,9.841,17.666,9.841s13.105-4.78,17.667-9.841c4.506-5,9.168-10.171,18.409-10.171s13.9,5.17,18.409,10.171c4.562,5.061,8.87,9.841,17.667,9.841s13.105-4.78,17.668-9.841c4.508-5,9.169-10.171,18.411-10.171s13.9,5.17,18.41,10.171c4.563,5.061,8.871,9.841,17.669,9.841s13.1-4.78,17.665-9.841c4.507-5,9.167-10.171,18.408-10.171s13.9,5.17,18.409,10.171c4.561,5.061,8.87,9.841,17.666,9.841s13.106-4.78,17.669-9.841c4.506-5,9.168-10.171,18.41-10.171s13.9,5.17,18.411,10.171c4.562,5.061,8.871,9.841,17.668,9.841s13.107-4.78,17.67-9.841c4.508-5,9.169-10.171,18.411-10.171s13.9,5.17,18.411,10.171c4.563,5.061,8.871,9.841,17.669,9.841a20.371,20.371,0,0,0,4.6-.5V881.526H-324.438v356.4C-320.668,1234.093-316.226,1230.853-308.914,1230.853Z" fill="#efefef"/>
    </g>
  </g>
</svg>
