<?xml version="1.0" encoding="utf-8"?>
<!-- Generator: Adobe Illustrator 23.0.3, SVG Export Plug-In . SVG Version: 6.00 Build 0)  -->
<svg version="1.1" id="レイヤー_1" xmlns="http://www.w3.org/2000/svg" xmlns:xlink="http://www.w3.org/1999/xlink" x="0px"
	 y="0px" viewBox="0 0 315 240" style="enable-background:new 0 0 315 240;" xml:space="preserve">
<style type="text/css">
	.st0{fill:none;}
	.st1{fill:#F4D32E;stroke:#1A1311;stroke-width:5;stroke-linecap:round;stroke-linejoin:round;}
	.st2{fill:#FFFFFF;stroke:#1A1311;stroke-width:5;stroke-linecap:round;stroke-linejoin:round;}
	.st3{fill:#F4D32E;stroke:#070203;stroke-width:5;stroke-linecap:round;stroke-linejoin:round;}
	.st4{fill:#F4D32E;}
	.st5{fill:#1A1311;}
	.st6{fill:#FFFFFF;}
	.st7{fill:none;stroke:#000000;stroke-width:5;stroke-linecap:round;stroke-miterlimit:10;}
</style>
<line class="st0" x1="34.71" y1="10.68" x2="45.23" y2="24.24"/>
<g id="グループ化_32" transform="translate(481.506 -242.701)">
	<g id="グループ化_27">
		<path id="パス_142" class="st1" d="M-430.48,376.5v-80.23c0-26.46,21.45-47.91,47.91-47.91l0,0c26.46,0,47.91,21.45,47.91,47.91
			l0,0v80.23"/>
		<g id="グループ化_26">
			<path id="パス_143" class="st1" d="M-427.1,376.5c6.65-17.02,23.05-28.22,41.32-28.22h7.11c18.27,0,34.67,11.2,41.32,28.22
				H-427.1z"/>
			<rect id="長方形_34" x="-395.14" y="324.89" class="st2" width="26.49" height="24.46"/>
			<path id="パス_144" class="st2" d="M-353.5,289.19v24.6c0,14.05-14.16,25.59-29.13,25.59c-15.92,0-28.97-12.65-29.47-28.56
				h-0.02v-21.21L-353.5,289.19z"/>
		</g>
	</g>
	<g id="グループ化_28">
		<path id="パス_145" class="st1" d="M-469.63,392.07c0-26.46,12.88-47.91,39.34-47.91l0,0c26.46,0,40.29,21.45,40.29,47.91
			l-14.51,28.62l-52.73-2.61L-469.63,392.07z"/>
		<path id="パス_146" class="st1" d="M-385.42,472.3c-6.65-17.02-23.05-28.22-41.32-28.22h-7.11c-18.27,0-34.67,11.2-41.32,28.22
			H-385.42z"/>
		<rect id="長方形_35" x="-443.87" y="420.69" class="st2" width="26.49" height="24.46"/>
		<path id="パス_147" class="st2" d="M-439.89,368.41c-10.76,0.68-19.14,9.61-19.14,20.39v20.8c0,14.05,14.16,25.59,29.13,25.59
			c15.92,0,28.97-12.65,29.47-28.56h0.02v-12.64"/>
		<path id="パス_148" class="st1" d="M-439.87,368.61h0.1c-0.06,0.68-0.1,1.37-0.1,2.07c0,12.87,10.43,23.31,23.31,23.31l0,0
			h16.17"/>
	</g>
	<g id="グループ化_29">
		<path id="パス_149" class="st3" d="M-227.18,278.86l-23.16,46.03l-52.74-2.61l-12.39-26.01c0-26.46,10.03-48.95,36.49-48.95"/>
		<path id="パス_150" class="st1" d="M-231.25,376.5c-6.65-17.02-23.05-28.22-41.32-28.22h-7.11c-18.27,0-34.67,11.2-41.32,28.22
			H-231.25z"/>
		<rect id="長方形_36" x="-289.7" y="324.89" class="st2" width="26.49" height="24.46"/>
		<path id="パス_151" class="st2" d="M-246.23,308.79v2.03h-0.02c-0.5,15.92-13.55,28.56-29.47,28.56
			c-14.96,0-29.13-11.54-29.13-25.59V293c-0.01-5.95,2.59-11.61,7.11-15.49"/>
	</g>
	<path id="長方形_37" class="st1" d="M-328.79,344.16L-328.79,344.16c26.46,0,47.91,21.45,47.91,47.91l0,0
		c0,26.46-21.45,47.91-47.91,47.91l0,0c-26.46,0-47.91-21.45-47.91-47.91l0,0C-376.7,365.61-355.25,344.16-328.79,344.16z"/>
	<g id="グループ化_30">
		<path id="長方形_38" class="st1" d="M-222.76,344.16L-222.76,344.16c26.46,0,47.91,21.45,47.91,47.91v28.34
			c0,26.46-21.45,47.91-47.91,47.91l0,0c-26.46,0-47.91-21.45-47.91-47.91v-28.34C-270.67,365.61-249.22,344.16-222.76,344.16z"/>
		<path id="パス_152" class="st1" d="M-177.89,472.3c-6.65-17.02-23.05-28.22-41.32-28.22h-7.11c-18.27,0-34.67,11.2-41.32,28.22
			H-177.89z"/>
		<rect id="長方形_39" x="-236.34" y="420.69" class="st2" width="26.49" height="24.46"/>
		<path id="パス_153" class="st2" d="M-232.35,368.41c-10.76,0.68-19.14,9.61-19.14,20.39v20.8c0,14.05,14.17,25.59,29.13,25.59
			c15.92,0,28.97-12.65,29.47-28.56h0.02v-12.64"/>
		<path id="パス_154" class="st1" d="M-232.34,368.61h0.1c-0.06,0.68-0.1,1.37-0.1,2.07c0,12.87,10.43,23.31,23.31,23.31l0,0
			h16.17"/>
	</g>
	<g id="グループ化_31">
		<path id="パス_155" class="st1" d="M-283.58,472.3c-6.65-17.02-23.05-28.22-41.32-28.22h-7.11c-18.27,0-34.67,11.2-41.32,28.22
			H-283.58z"/>
		<rect id="長方形_40" x="-342.04" y="420.69" class="st2" width="26.49" height="24.46"/>
		<path id="パス_156" class="st2" d="M-298.56,393.99v12.64h-0.02c-0.5,15.92-13.55,28.56-29.47,28.56
			c-14.96,0-29.13-11.54-29.13-25.59v-20.8c0-10.78,8.38-19.71,19.14-20.39l24.62,24.62v-15.52L-298.56,393.99z"/>
	</g>
	<path id="パス_157" class="st1" d="M-232.57,275.81"/>
	<path class="st4" d="M-259.26,263.87c-0.97,0-1.94-0.4-2.63-1.2c-0.72-0.82-1.32-1.73-1.78-2.72c-0.6,0.01-1.17-0.05-1.75-0.17
		c-1.25-0.27-2.25-1.19-2.62-2.42c-0.02-0.08-0.05-0.17-0.06-0.25c-0.35-0.1-0.69-0.22-1.03-0.37c-0.9-0.39-1.58-1.12-1.9-2
		c-1.77-0.18-3.14-1.67-3.15-3.48c0-1.93,1.56-3.5,3.5-3.5l5.44-0.01c0.79-0.03,1.58,0.17,2.26,0.57c0.26,0.15,0.5,0.34,0.71,0.55
		c0.43,0.43,0.75,0.94,0.95,1.5c1.22,0.61,2.19,1.54,2.78,2.75c0.41,0.77,0.58,1.64,0.52,2.49c0.23,0.37,0.43,0.76,0.61,1.17
		c0.2,0.48,0.47,0.91,0.8,1.29c1.27,1.45,1.13,3.67-0.33,4.94C-257.62,263.58-258.44,263.87-259.26,263.87z"/>
	<path class="st4" d="M-236.07,275.79c-0.13,0-0.26-0.01-0.39-0.02c-0.06-0.01-0.12-0.01-0.17-0.02c-0.46-0.07-0.91-0.2-1.34-0.39
		c-2.32-0.99-4.44-2.36-6.29-4.07c-0.05-0.04-0.1-0.09-0.14-0.14c-0.57-0.58-1.19-1.12-1.84-1.6c-0.01-0.01-0.05-0.02-0.09-0.01
		c-1.89,0.42-3.76-0.77-4.17-2.66c-0.42-1.89,0.77-3.76,2.66-4.17c1.66-0.37,3.4-0.13,4.88,0.66c1.09-0.73,2.53-0.8,3.71-0.11
		c0.41,0.24,0.87,0.39,1.35,0.42c1.66,0.12,2.96,1.39,3.2,2.97c0.91,0.54,1.69,1.27,2.28,2.17c0.08,0.13,0.16,0.26,0.22,0.39
		c0.72,1.49,0.57,3.34-0.38,4.71C-233.41,275.11-234.69,275.79-236.07,275.79z M-235.06,268.99L-235.06,268.99L-235.06,268.99z"/>
	<path id="パス_160" class="st5" d="M-225.77,276.96c-0.58-0.6-1.23-1.14-1.94-1.59l0.01-0.01c-1.9-1.32-2.28-2.99-2.78-5.26
		c-0.59-2.73-1.33-6.13-5.3-8.55c-3.97-2.42-7.33-1.51-10.03-0.79c-2.37,0.64-4.09,1.1-6.31-0.26c-2.22-1.36-2.6-3.09-3.13-5.5
		c-0.6-2.73-1.33-6.13-5.3-8.55s-7.33-1.52-10.03-0.79c-2.38,0.64-4.09,1.1-6.32-0.26c-1.12-0.68-2.59-0.33-3.27,0.79l0,0
		c-0.41,0.67-0.46,1.51-0.13,2.22c0.2,0.43,0.52,0.8,0.93,1.05c3.97,2.42,7.33,1.52,10.03,0.79c2.38-0.64,4.09-1.1,6.32,0.26
		c2.23,1.36,2.6,3.09,3.13,5.5c0.59,2.73,1.33,6.13,5.3,8.55c3.97,2.42,7.33,1.51,10.03,0.79c2.37-0.64,4.09-1.1,6.31,0.26
		c2.22,1.36,2.6,3.09,3.13,5.49c0.54,2.51,1.22,5.58,4.4,7.94c-0.01,0.01-0.02,0.02-0.03,0.03c0.11,0.06,0.22,0.12,0.33,0.19
		c0.14,0.1,0.28,0.19,0.42,0.28c0.3,0.22,0.57,0.46,0.83,0.72c0.91,0.94,2.42,0.97,3.37,0.06
		C-224.88,279.42-224.85,277.92-225.77,276.96C-225.77,276.97-225.77,276.97-225.77,276.96z"/>
	<path class="st6" d="M-277.7,290.83c-0.39,0-0.78-0.07-1.16-0.2c-1.83-0.59-3.18-1.72-4.37-2.71c-0.73-0.61-1.42-1.19-2.07-1.5
		c-1.03-0.38-2.14-0.5-3.23-0.35c-1.63,0.22-3.15-0.94-3.37-2.58c-0.22-1.62,0.9-3.1,2.5-3.36c0.14-0.52,0.42-1.02,0.85-1.41
		c1.12-1.05,2.65-1.51,4.14-1.27c0.93,0.05,1.86,0.18,2.77,0.4c0.07,0.02,0.14,0.04,0.21,0.06c4.16,1.3,6.97,5.08,7.02,9.43
		c0.05,0.96-0.31,1.9-1,2.58c-0.23,0.23-0.49,0.41-0.77,0.56C-276.67,290.71-277.18,290.83-277.7,290.83z"/>
	<path class="st6" d="M-252.89,307.31c-2.65,0-5.22-0.86-7.36-2.47c-1.91-1.45-3.71-3.04-5.39-4.73c-1.48-0.24-2.58-1.56-2.51-3.1
		c0.08-1.65,1.47-2.94,3.14-2.86c0.76,0.04,1.5,0.24,2.16,0.59c0.13-0.07,0.26-0.13,0.4-0.18c1.67-0.6,4.47-1.6,7.22-0.31
		c0.06,0.03,0.12,0.06,0.17,0.09c1.09,0.6,2.04,1.4,2.82,2.36c0.53,0.65,0.74,1.46,0.65,2.23c0.34,0.23,0.66,0.48,0.97,0.75
		c1.62,1.44,2.17,3.62,1.45,5.61c-0.4,1.09-1.38,1.85-2.53,1.96C-252.1,307.29-252.5,307.31-252.89,307.31z M-265.3,300.15
		L-265.3,300.15L-265.3,300.15z"/>
	<path id="パス_163" class="st5" d="M-243.67,307.88c-0.58-0.6-1.23-1.14-1.94-1.59l0.01-0.01c-1.9-1.32-2.28-2.99-2.78-5.26
		c-0.59-2.73-1.33-6.13-5.3-8.55c-3.97-2.42-7.33-1.51-10.03-0.79c-2.37,0.64-4.09,1.1-6.31-0.26c-2.22-1.35-2.6-3.09-3.13-5.5
		c-0.6-2.73-1.33-6.13-5.3-8.55c-3.97-2.42-7.33-1.52-10.03-0.79c-2.38,0.64-4.09,1.1-6.32-0.26c-1.12-0.68-2.59-0.33-3.27,0.79l0,0
		c-0.41,0.67-0.46,1.51-0.13,2.22c0.2,0.43,0.52,0.8,0.93,1.05c3.97,2.42,7.33,1.52,10.03,0.79c2.38-0.64,4.09-1.1,6.32,0.26
		c2.23,1.36,2.6,3.09,3.13,5.5c0.59,2.73,1.33,6.13,5.3,8.55c3.97,2.42,7.33,1.51,10.03,0.79c2.37-0.64,4.09-1.1,6.31,0.26
		s2.6,3.09,3.12,5.49c0.55,2.51,1.22,5.58,4.4,7.94c-0.01,0.01-0.02,0.02-0.03,0.03c0.11,0.06,0.22,0.12,0.33,0.19
		c0.14,0.1,0.28,0.18,0.42,0.28c0.3,0.22,0.57,0.46,0.83,0.72c0.91,0.94,2.42,0.97,3.37,0.06
		C-242.78,310.33-242.76,308.83-243.67,307.88L-243.67,307.88z"/>
</g>
<line class="st7" x1="34.02" y1="12.56" x2="43.11" y2="25.01"/>
<line class="st7" x1="21.13" y1="27.29" x2="34.78" y2="34.46"/>
<line class="st7" x1="15.83" y1="45.05" x2="31.15" y2="46.77"/>
<line class="st0" x1="302.11" y1="83.73" x2="290.2" y2="96.09"/>
<line class="st7" x1="300.15" y1="83.32" x2="289.13" y2="94.1"/>
<line class="st7" x1="283.73" y1="72.68" x2="278.58" y2="87.21"/>
<line class="st7" x1="265.39" y1="69.98" x2="265.89" y2="85.39"/>
</svg>
