<svg xmlns="http://www.w3.org/2000/svg" width="699.069" height="604.058" viewBox="0 0 699.069 604.058">
  <g id="グループ化_48" data-name="グループ化 48" transform="translate(-179.5 -2136.313)">
    <path id="パス_104" data-name="パス 104" d="M831.63,2120.313l-389.663,58.171L389.52,2460.95l233.953,131.478,319.776-56.9,44.32-247.958Z" transform="translate(-109 16)" fill="#faea6b"/>
    <g id="グループ化_32" data-name="グループ化 32" transform="translate(661.006 2256.299)">
      <g id="グループ化_27" data-name="グループ化 27">
        <path id="パス_142" data-name="パス 142" d="M-432.069,380.943V296.672a50.326,50.326,0,0,1,50.326-50.325h0a50.325,50.325,0,0,1,50.325,50.325v84.271" fill="#f4d32e" stroke="#1a1311" stroke-linecap="round" stroke-linejoin="round" stroke-width="5"/>
        <g id="グループ化_26" data-name="グループ化 26">
          <path id="パス_143" data-name="パス 143" d="M-428.521,380.943a46.6,46.6,0,0,1,43.4-29.64h7.468a46.6,46.6,0,0,1,43.4,29.64Z" fill="#f4d32e" stroke="#1a1311" stroke-linecap="round" stroke-linejoin="round" stroke-width="5"/>
          <rect id="長方形_34" data-name="長方形 34" width="27.83" height="25.692" transform="translate(-367.12 352.428) rotate(180)" stroke-width="5" stroke="#1a1311" stroke-linecap="round" stroke-linejoin="round" fill="#fff"/>
          <path id="パス_144" data-name="パス 144" d="M-351.209,289.236v25.843c0,14.758-14.879,26.883-30.6,26.883a30.973,30.973,0,0,1-30.954-30h-.024V289.681Z" fill="#fff" stroke="#1a1311" stroke-linecap="round" stroke-linejoin="round" stroke-width="5"/>
        </g>
      </g>
      <g id="グループ化_28" data-name="グループ化 28">
        <path id="パス_145" data-name="パス 145" d="M-473.2,397.3c0-27.795,13.531-50.326,41.325-50.326h0c27.794,0,42.325,22.531,42.325,50.326l-15.245,30.064-55.393-2.745Z" fill="#f4d32e" stroke="#1a1311" stroke-linecap="round" stroke-linejoin="round" stroke-width="5"/>
        <path id="パス_146" data-name="パス 146" d="M-384.743,481.572a46.6,46.6,0,0,0-43.4-29.641h-7.469a46.6,46.6,0,0,0-43.4,29.641Z" fill="#f4d32e" stroke="#1a1311" stroke-linecap="round" stroke-linejoin="round" stroke-width="5"/>
        <rect id="長方形_35" data-name="長方形 35" width="27.83" height="25.692" transform="translate(-446.143 427.365)" stroke-width="5" stroke="#1a1311" stroke-linecap="round" stroke-linejoin="round" fill="#fff"/>
        <path id="パス_147" data-name="パス 147" d="M-441.953,372.447a21.46,21.46,0,0,0-20.1,21.417v21.844c0,14.757,14.879,26.882,30.6,26.882a30.973,30.973,0,0,0,30.954-30h.025V399.309" fill="#fff" stroke="#1a1311" stroke-linecap="round" stroke-linejoin="round" stroke-width="5"/>
        <path id="パス_148" data-name="パス 148" d="M-441.94,372.652h.1c-.063.718-.1,1.443-.1,2.177a24.48,24.48,0,0,0,24.48,24.48h16.983" fill="#f4d32e" stroke="#1a1311" stroke-linecap="round" stroke-linejoin="round" stroke-width="5"/>
      </g>
      <g id="グループ化_29" data-name="グループ化 29">
        <path id="パス_149" data-name="パス 149" d="M-218.528,278.384l-24.323,48.352-55.394-2.745-13.013-27.319c0-27.794,10.534-51.419,38.328-51.419" fill="#f4d32e" stroke="#070203" stroke-linecap="round" stroke-linejoin="round" stroke-width="5"/>
        <path id="パス_150" data-name="パス 150" d="M-222.8,380.943a46.6,46.6,0,0,0-43.4-29.64h-7.468a46.6,46.6,0,0,0-43.4,29.64Z" fill="#f4d32e" stroke="#1a1311" stroke-linecap="round" stroke-linejoin="round" stroke-width="5"/>
        <rect id="長方形_36" data-name="長方形 36" width="27.83" height="25.692" transform="translate(-284.201 326.736)" stroke-width="5" stroke="#1a1311" stroke-linecap="round" stroke-linejoin="round" fill="#fff"/>
        <path id="パス_151" data-name="パス 151" d="M-238.535,309.824v2.134h-.025a30.973,30.973,0,0,1-30.954,30c-15.719,0-30.6-12.125-30.6-26.883V293.236a21.411,21.411,0,0,1,7.465-16.269" fill="#fff" stroke="#1a1311" stroke-linecap="round" stroke-linejoin="round" stroke-width="5"/>
      </g>
      <rect id="長方形_37" data-name="長方形 37" width="100.651" height="100.651" rx="50.326" transform="translate(-375.584 346.975)" stroke-width="5" stroke="#1a1311" stroke-linecap="round" stroke-linejoin="round" fill="#f4d32e"/>
      <g id="グループ化_30" data-name="グループ化 30">
        <rect id="長方形_38" data-name="長方形 38" width="100.651" height="130.416" rx="50.326" transform="translate(-264.205 346.975)" stroke-width="5" stroke="#1a1311" stroke-linecap="round" stroke-linejoin="round" fill="#f4d32e"/>
        <path id="パス_152" data-name="パス 152" d="M-166.748,481.572a46.6,46.6,0,0,0-43.4-29.641h-7.468a46.6,46.6,0,0,0-43.4,29.641Z" fill="#f4d32e" stroke="#1a1311" stroke-linecap="round" stroke-linejoin="round" stroke-width="5"/>
        <rect id="長方形_39" data-name="長方形 39" width="27.83" height="25.692" transform="translate(-228.148 427.365)" stroke-width="5" stroke="#1a1311" stroke-linecap="round" stroke-linejoin="round" fill="#fff"/>
        <path id="パス_153" data-name="パス 153" d="M-223.958,372.447a21.46,21.46,0,0,0-20.1,21.417v21.844c0,14.757,14.88,26.882,30.6,26.882a30.973,30.973,0,0,0,30.954-30h.025V399.309" fill="#fff" stroke="#1a1311" stroke-linecap="round" stroke-linejoin="round" stroke-width="5"/>
        <path id="パス_154" data-name="パス 154" d="M-223.945,372.652h.1c-.064.718-.1,1.443-.1,2.177a24.48,24.48,0,0,0,24.48,24.48h16.983" fill="#f4d32e" stroke="#1a1311" stroke-linecap="round" stroke-linejoin="round" stroke-width="5"/>
      </g>
      <g id="グループ化_31" data-name="グループ化 31">
        <path id="パス_155" data-name="パス 155" d="M-277.773,481.572a46.6,46.6,0,0,0-43.4-29.641h-7.468a46.6,46.6,0,0,0-43.4,29.641Z" fill="#f4d32e" stroke="#1a1311" stroke-linecap="round" stroke-linejoin="round" stroke-width="5"/>
        <rect id="長方形_40" data-name="長方形 40" width="27.83" height="25.692" transform="translate(-339.173 427.365)" stroke-width="5" stroke="#1a1311" stroke-linecap="round" stroke-linejoin="round" fill="#fff"/>
        <path id="パス_156" data-name="パス 156" d="M-293.507,399.309v13.278h-.025a30.973,30.973,0,0,1-30.954,30c-15.719,0-30.6-12.125-30.6-26.882V393.864a21.46,21.46,0,0,1,20.1-21.417l25.862,25.862v-16.3Z" fill="#fff" stroke="#1a1311" stroke-linecap="round" stroke-linejoin="round" stroke-width="5"/>
      </g>
      <path id="パス_157" data-name="パス 157" d="M-224.188,275.173" fill="#f4d32e" stroke="#1a1311" stroke-linecap="round" stroke-linejoin="round" stroke-width="5"/>
      <path id="パス_158" data-name="パス 158" d="M-264.234,249.385l5.817-.006a.657.657,0,0,1,.4.087.66.66,0,0,1,.191.463l.174,1.363a.859.859,0,0,1-.114.7.8.8,0,0,1-.514.2,5.7,5.7,0,0,1-2.877-.425,9.034,9.034,0,0,1,1.937-.44c1.694-.207,3.744.158,4.469,1.7a1.121,1.121,0,0,1,.034,1.057,1.23,1.23,0,0,1-.614.438,4.481,4.481,0,0,1-2.6.22,2,2,0,0,1,2.528-.265,5.01,5.01,0,0,1,1.717,2.134,8.649,8.649,0,0,0,1.463,2.343" fill="none" stroke="#f4d32e" stroke-linecap="round" stroke-linejoin="round" stroke-width="1"/>
      <path id="パス_159" data-name="パス 159" d="M-239.447,265a3.815,3.815,0,0,1,3.049.625,18.468,18.468,0,0,1,2.419,2.1,19.438,19.438,0,0,0,5.6,3.614,1.51,1.51,0,0,0,.437.132c.733.067,1.145-.958.824-1.62a3.608,3.608,0,0,0-1.682-1.373,17.126,17.126,0,0,1-4.271-3.313,6.952,6.952,0,0,0,3,.936" fill="none" stroke="#f4d32e" stroke-linecap="round" stroke-linejoin="round" stroke-width="1"/>
      <path id="パス_160" data-name="パス 160" d="M-217.046,276.389a11.312,11.312,0,0,0-2.04-1.673l.007-.006c-2-1.388-2.4-3.14-2.923-5.52-.623-2.871-1.4-6.442-5.566-8.981s-7.7-1.59-10.532-.828c-2.494.67-4.3,1.154-6.633-.27s-2.736-3.25-3.285-5.774c-.625-2.87-1.4-6.442-5.57-8.982s-7.7-1.592-10.535-.831c-2.5.669-4.3,1.153-6.638-.272a2.5,2.5,0,0,0-3.436.834,2.5,2.5,0,0,0-.141,2.335,2.483,2.483,0,0,0,.976,1.1c4.167,2.54,7.7,1.593,10.534.832,2.5-.67,4.3-1.153,6.639.272s2.735,3.25,3.285,5.775c.624,2.869,1.4,6.441,5.57,8.981s7.695,1.59,10.531.828c2.494-.669,4.3-1.154,6.633.27s2.732,3.249,3.283,5.772c.572,2.636,1.281,5.86,4.618,8.336-.011.011-.019.025-.03.036.117.059.233.126.348.2.142.1.291.2.442.29a6.548,6.548,0,0,1,.869.757,2.5,2.5,0,0,0,3.535.059A2.5,2.5,0,0,0-217.046,276.389Z" fill="#1a1311"/>
      <path id="パス_161" data-name="パス 161" d="M-283.38,282.82a10.291,10.291,0,0,1,5.01.581c2.426,1.07,4.063,3.584,6.6,4.36a.419.419,0,0,0,.36-.007.42.42,0,0,0,.12-.356,7.364,7.364,0,0,0-5.163-7.022A13.246,13.246,0,0,0-279,280.03a2.011,2.011,0,0,0-1.829.492" fill="none" stroke="#fff" stroke-linecap="round" stroke-linejoin="round" stroke-width="1"/>
      <path id="パス_162" data-name="パス 162" d="M-258.42,297.6a2.3,2.3,0,0,1,1.645.806,51.571,51.571,0,0,0,5.409,4.753,9.692,9.692,0,0,0,6.773,1.91,2.224,2.224,0,0,0-.613-2.424,8.541,8.541,0,0,0-2.26-1.393c-.823-.421-1.613-.9-2.428-1.338a47.96,47.96,0,0,0-4.626-2.065c1.676-.6,3.568-1.2,5.181-.443a6.866,6.866,0,0,1,2.031,1.7" fill="none" stroke="#fff" stroke-linecap="round" stroke-linejoin="round" stroke-width="1"/>
      <path id="パス_163" data-name="パス 163" d="M-235.85,308.861a11.312,11.312,0,0,0-2.04-1.673l.007-.007c-2-1.387-2.4-3.14-2.923-5.52-.623-2.87-1.4-6.441-5.567-8.98s-7.695-1.591-10.532-.829c-2.494.671-4.3,1.154-6.632-.269s-2.736-3.25-3.285-5.775c-.625-2.87-1.4-6.442-5.57-8.981s-7.7-1.593-10.536-.832c-2.495.67-4.3,1.154-6.637-.272a2.5,2.5,0,0,0-3.436.834,2.5,2.5,0,0,0-.141,2.335,2.484,2.484,0,0,0,.975,1.1c4.168,2.54,7.7,1.593,10.535.832,2.5-.67,4.3-1.154,6.638.272s2.736,3.249,3.286,5.774c.624,2.869,1.4,6.441,5.569,8.982s7.7,1.59,10.532.828c2.494-.67,4.3-1.154,6.633.27s2.732,3.249,3.282,5.772c.573,2.636,1.282,5.86,4.619,8.336-.011.011-.019.025-.03.036.117.059.232.126.348.2.142.1.291.194.442.29a6.609,6.609,0,0,1,.869.757,2.5,2.5,0,0,0,3.535.059A2.5,2.5,0,0,0-235.85,308.861Z" fill="#1a1311"/>
    </g>
  </g>
</svg>
