<?xml version="1.0" encoding="utf-8"?>
<!-- Generator: Adobe Illustrator 23.0.3, SVG Export Plug-In . SVG Version: 6.00 Build 0)  -->
<svg version="1.1" id="レイヤー_1" xmlns="http://www.w3.org/2000/svg" xmlns:xlink="http://www.w3.org/1999/xlink" x="0px"
	 y="0px" viewBox="0 0 364.44 355.12" style="enable-background:new 0 0 364.44 355.12;" xml:space="preserve">
<style type="text/css">
	.st0{fill:#F4D32E;stroke:#1A1311;stroke-width:5;stroke-linecap:round;stroke-linejoin:round;}
	.st1{fill:#FFFFFF;stroke:#1A1311;stroke-width:5;stroke-linecap:round;stroke-linejoin:round;}
	.st2{fill:none;stroke:#1A1311;stroke-width:5;stroke-linecap:round;stroke-linejoin:round;}
</style>
<g id="グループ化_45-2" transform="translate(105.301 -181.396)">
	<g id="グループ化_39-2">
		<path id="長方形_44-2" class="st0" d="M-49.41,393.89L-49.41,393.89c27.79,0,50.33,22.53,50.33,50.33v29.76
			c0,27.79-22.53,50.33-50.33,50.33l0,0c-27.79,0-50.33-22.53-50.33-50.33v-29.76C-99.73,416.43-77.2,393.89-49.41,393.89z"/>
		<path id="パス_180-2" class="st0" d="M-2.28,528.49c-6.98-17.87-24.21-29.64-43.4-29.64h-7.47c-19.19,0-36.42,11.77-43.4,29.64
			H-2.28z"/>
		<rect id="長方形_45-2" x="-63.68" y="474.28" class="st1" width="27.83" height="25.69"/>
		<path id="パス_181-2" class="st1" d="M-59.49,419.37c-11.3,0.72-20.1,10.09-20.1,21.42v21.84c0,14.76,14.88,26.88,30.6,26.88
			c16.73,0,30.43-13.28,30.95-30h0.02v-13.28"/>
		<path id="パス_182-2" class="st0" d="M-59.48,419.57h0.1c-0.06,0.72-0.1,1.44-0.1,2.18c0,13.52,10.96,24.48,24.48,24.48h16.98"
			/>
	</g>
	<g id="グループ化_40-2">
		<path id="長方形_46-2" class="st0" d="M45.57,371.13h59.02c8.36,0,15.14,6.78,15.14,15.14l0,0c0,8.36-6.78,15.14-15.14,15.14
			H45.57c-8.36,0-15.14-6.78-15.14-15.14l0,0C30.43,377.9,37.21,371.13,45.57,371.13z"/>
		<line id="線_27-2" class="st2" x1="55.9" y1="401.4" x2="30.8" y2="426.51"/>
	</g>
	<g id="グループ化_41-2">
		<path id="長方形_47-2" class="st0" d="M67.07,290.06h59.02c8.36,0,15.14,6.78,15.14,15.14l0,0c0,8.36-6.78,15.14-15.14,15.14
			H67.07c-8.36,0-15.14-6.78-15.14-15.14l0,0C51.93,296.84,58.71,290.06,67.07,290.06z"/>
		<line id="線_28-2" class="st2" x1="77.4" y1="320.34" x2="52.3" y2="345.44"/>
	</g>
	<g id="グループ化_41-2_1_">
		<path id="長方形_47-2_1_" class="st0" d="M161.27,348.53h59.02c8.36,0,15.14,6.78,15.14,15.14l0,0
			c0,8.36-6.78,15.14-15.14,15.14h-59.02c-8.36,0-15.14-6.78-15.14-15.14l0,0C146.13,355.31,152.91,348.53,161.27,348.53z"/>
		<line id="線_28-2_1_" class="st2" x1="171.6" y1="378.81" x2="146.5" y2="403.91"/>
	</g>
	<g id="グループ化_42-2">
		<path id="長方形_48-2" class="st0" d="M-47.54,320.84h59.02c8.36,0,15.14,6.78,15.14,15.14l0,0c0,8.36-6.78,15.14-15.14,15.14
			h-59.02c-8.36,0-15.14-6.78-15.14-15.14l0,0C-62.68,327.62-55.9,320.84-47.54,320.84z"/>
		<line id="線_29-2" class="st2" x1="-37.21" y1="351.12" x2="-62.31" y2="376.22"/>
	</g>
	<g id="グループ化_42-2_1_">
		<path id="長方形_48-2_1_" class="st0" d="M-56.54,242.12H2.48c8.36,0,15.14,6.78,15.14,15.14l0,0
			c0,8.36-6.78,15.14-15.14,15.14h-59.02c-8.36,0-15.14-6.78-15.14-15.14l0,0C-71.68,248.9-64.9,242.12-56.54,242.12z"/>
		<line id="線_29-2_1_" class="st2" x1="-46.21" y1="272.4" x2="-71.31" y2="297.5"/>
	</g>
	<g id="グループ化_43-2">
		<path id="長方形_49-2" class="st0" d="M180.45,259.62h59.02c8.36,0,15.14,6.78,15.14,15.14l0,0c0,8.36-6.78,15.14-15.14,15.14
			h-59.02c-8.36,0-15.14-6.78-15.14-15.14l0,0C165.31,266.4,172.09,259.62,180.45,259.62z"/>
		<line id="線_30-2" class="st2" x1="190.78" y1="289.9" x2="165.68" y2="315"/>
	</g>
	<g id="グループ化_44-2">
		<path id="長方形_50-2" class="st0" d="M68.32,204.98h59.02c8.36,0,15.14,6.78,15.14,15.14l0,0c0,8.36-6.78,15.14-15.14,15.14
			H68.32c-8.36,0-15.14-6.78-15.14-15.14l0,0C53.18,211.76,59.96,204.98,68.32,204.98z"/>
		<line id="線_31-2" class="st2" x1="78.65" y1="235.26" x2="53.55" y2="260.36"/>
	</g>
</g>
</svg>
