<?xml version="1.0" encoding="utf-8"?>
<!-- Generator: Adobe Illustrator 23.0.3, SVG Export Plug-In . SVG Version: 6.00 Build 0)  -->
<svg version="1.1" id="レイヤー_1" xmlns="http://www.w3.org/2000/svg" xmlns:xlink="http://www.w3.org/1999/xlink" x="0px"
	 y="0px" viewBox="0 0 364.44 355.12" style="enable-background:new 0 0 364.44 355.12;" xml:space="preserve">
<style type="text/css">
	.st0{fill:#F4D32E;stroke:#1A1311;stroke-width:5;stroke-linecap:round;stroke-linejoin:round;}
	.st1{fill:#FFFFFF;stroke:#1A1311;stroke-width:5;stroke-linecap:round;stroke-linejoin:round;}
	.st2{fill:none;stroke:#1A1311;stroke-width:5;stroke-linecap:round;stroke-linejoin:round;}
</style>
<g id="グループ化_45-2" transform="translate(105.301 -181.396)">
	<g id="グループ化_39-2">
		<path id="長方形_44-2" class="st0" d="M-49.41,398.89L-49.41,398.89c27.79,0,50.33,22.53,50.33,50.33v29.76
			c0,27.79-22.53,50.33-50.33,50.33l0,0c-27.79,0-50.33-22.53-50.33-50.33v-29.76C-99.73,421.43-77.2,398.89-49.41,398.89z"/>
		<path id="パス_180-2" class="st0" d="M-2.28,533.49c-6.98-17.87-24.21-29.64-43.4-29.64h-7.47c-19.19,0-36.42,11.77-43.4,29.64
			H-2.28z"/>
		<rect id="長方形_45-2" x="-63.68" y="479.28" class="st1" width="27.83" height="25.69"/>
		<path id="パス_181-2" class="st1" d="M-59.49,424.37c-11.3,0.72-20.1,10.09-20.1,21.42v21.84c0,14.76,14.88,26.88,30.6,26.88
			c16.73,0,30.43-13.28,30.95-30h0.02v-13.28"/>
		<path id="パス_182-2" class="st0" d="M-59.48,424.57h0.1c-0.06,0.72-0.1,1.44-0.1,2.18c0,13.52,10.96,24.48,24.48,24.48h16.98"
			/>
	</g>
	<g id="グループ化_40-2">
		<path id="長方形_46-2" class="st0" d="M38.57,379.13h59.02c8.36,0,15.14,6.78,15.14,15.14l0,0c0,8.36-6.78,15.14-15.14,15.14
			H38.57c-8.36,0-15.14-6.78-15.14-15.14l0,0C23.43,385.91,30.21,379.13,38.57,379.13z"/>
		<line id="線_27-2" class="st2" x1="48.9" y1="409.41" x2="23.8" y2="434.51"/>
	</g>
	<g id="グループ化_41-2">
		<path id="長方形_47-2" class="st0" d="M51.62,305.51h59.02c8.36,0,15.14,6.78,15.14,15.14l0,0c0,8.36-6.78,15.14-15.14,15.14
			H51.62c-8.36,0-15.14-6.78-15.14-15.14l0,0C36.48,312.29,43.26,305.51,51.62,305.51z"/>
		<line id="線_28-2" class="st2" x1="61.95" y1="335.79" x2="36.85" y2="360.89"/>
	</g>
	<g id="グループ化_42-2">
		<path id="長方形_48-2" class="st0" d="M-54.54,327.84H4.48c8.36,0,15.14,6.78,15.14,15.14l0,0c0,8.36-6.78,15.14-15.14,15.14
			h-59.02c-8.36,0-15.14-6.78-15.14-15.14l0,0C-69.68,334.62-62.9,327.84-54.54,327.84z"/>
		<line id="線_29-2" class="st2" x1="-44.21" y1="358.12" x2="-69.31" y2="383.22"/>
	</g>
	<g id="グループ化_43-2">
		<path id="長方形_49-2" class="st0" d="M164.63,274.44h59.02c8.36,0,15.14,6.78,15.14,15.14l0,0c0,8.36-6.78,15.14-15.14,15.14
			h-59.02c-8.36,0-15.14-6.78-15.14-15.14l0,0C149.49,281.22,156.27,274.44,164.63,274.44z"/>
		<line id="線_30-2" class="st2" x1="174.96" y1="304.72" x2="149.86" y2="329.82"/>
	</g>
	<g id="グループ化_44-2">
		<path id="長方形_50-2" class="st0" d="M35.15,237.15h59.02c8.36,0,15.14,6.78,15.14,15.14l0,0c0,8.36-6.78,15.14-15.14,15.14
			H35.15c-8.36,0-15.14-6.78-15.14-15.14l0,0C20.01,243.93,26.79,237.15,35.15,237.15z"/>
		<line id="線_31-2" class="st2" x1="45.48" y1="267.43" x2="20.38" y2="292.53"/>
	</g>
</g>
</svg>
