<svg xmlns="http://www.w3.org/2000/svg" width="741.337" height="544.367" viewBox="0 0 741.337 544.367">
  <g id="グループ化_49" data-name="グループ化 49" transform="translate(-957.438 -2550.73)">
    <path id="パス_107" data-name="パス 107" d="M957.438,2616.367l369.991-65.637,198.834,157.258-133.139,217.562L968,2888.305Z" fill="#f8e43e"/>
    <g id="グループ化_38" data-name="グループ化 38" transform="translate(1797.032 2256.775)">
      <g id="グループ化_33" data-name="グループ化 33">
        <rect id="長方形_41" data-name="長方形 41" width="100.651" height="130.416" rx="50.326" transform="translate(-201.408 701.225)" stroke-width="5" stroke="#1a1311" stroke-linecap="round" stroke-linejoin="round" fill="#f4d32e"/>
        <path id="パス_164" data-name="パス 164" d="M-103.951,835.822a46.6,46.6,0,0,0-43.4-29.641h-7.468a46.6,46.6,0,0,0-43.4,29.641Z" fill="#f4d32e" stroke="#1a1311" stroke-linecap="round" stroke-linejoin="round" stroke-width="5"/>
        <rect id="長方形_42" data-name="長方形 42" width="27.83" height="25.692" transform="translate(-165.351 781.615)" stroke-width="5" stroke="#1a1311" stroke-linecap="round" stroke-linejoin="round" fill="#fff"/>
        <path id="パス_165" data-name="パス 165" d="M-161.161,726.7a21.46,21.46,0,0,0-20.1,21.417v21.844c0,14.758,14.88,26.882,30.6,26.882a30.973,30.973,0,0,0,30.954-30h.025V753.56" fill="#fff" stroke="#1a1311" stroke-linecap="round" stroke-linejoin="round" stroke-width="5"/>
        <path id="パス_166" data-name="パス 166" d="M-161.148,726.9h.1c-.064.718-.1,1.443-.1,2.177a24.481,24.481,0,0,0,24.48,24.481h16.983" fill="#f4d32e" stroke="#1a1311" stroke-linecap="round" stroke-linejoin="round" stroke-width="5"/>
      </g>
      <g id="グループ化_35" data-name="グループ化 35">
        <g id="グループ化_34" data-name="グループ化 34">
          <path id="パス_167" data-name="パス 167" d="M-318.5,733.262l-24.324,48.353-55.393-2.745-13.013-27.319c0-27.794,10.534-51.419,38.328-51.419" fill="#f4d32e" stroke="#070203" stroke-linecap="round" stroke-linejoin="round" stroke-width="5"/>
          <path id="パス_168" data-name="パス 168" d="M-322.769,835.822a46.6,46.6,0,0,0-43.4-29.641h-7.469a46.6,46.6,0,0,0-43.4,29.641Z" fill="#f4d32e" stroke="#1a1311" stroke-linecap="round" stroke-linejoin="round" stroke-width="5"/>
          <rect id="長方形_43" data-name="長方形 43" width="27.83" height="25.692" transform="translate(-384.169 781.615)" stroke-width="5" stroke="#1a1311" stroke-linecap="round" stroke-linejoin="round" fill="#fff"/>
          <path id="パス_169" data-name="パス 169" d="M-338.5,764.7v2.134h-.025a30.973,30.973,0,0,1-30.954,30c-15.72,0-30.6-12.124-30.6-26.882V748.114a21.409,21.409,0,0,1,7.465-16.268" fill="#fff" stroke="#1a1311" stroke-linecap="round" stroke-linejoin="round" stroke-width="5"/>
        </g>
        <path id="パス_170" data-name="パス 170" d="M-324.156,730.051" fill="#f4d32e" stroke="#1a1311" stroke-linecap="round" stroke-linejoin="round" stroke-width="5"/>
        <path id="パス_171" data-name="パス 171" d="M-364.2,704.263l5.817-.006a.659.659,0,0,1,.4.087.66.66,0,0,1,.191.463l.174,1.364a.863.863,0,0,1-.114.7.8.8,0,0,1-.515.2,5.718,5.718,0,0,1-2.877-.426,8.982,8.982,0,0,1,1.938-.439c1.694-.208,3.744.158,4.469,1.7a1.123,1.123,0,0,1,.034,1.058,1.242,1.242,0,0,1-.614.438,4.49,4.49,0,0,1-2.6.22,1.994,1.994,0,0,1,2.527-.265,4.991,4.991,0,0,1,1.717,2.134,8.707,8.707,0,0,0,1.464,2.343" fill="none" stroke="#f4d32e" stroke-linecap="round" stroke-linejoin="round" stroke-width="1"/>
        <path id="パス_172" data-name="パス 172" d="M-339.415,719.883a3.814,3.814,0,0,1,3.049.624,18.464,18.464,0,0,1,2.419,2.1,19.417,19.417,0,0,0,5.6,3.614,1.47,1.47,0,0,0,.437.132c.733.068,1.145-.958.824-1.62a3.619,3.619,0,0,0-1.682-1.373,17.127,17.127,0,0,1-4.271-3.313,6.968,6.968,0,0,0,3,.937" fill="none" stroke="#f4d32e" stroke-linecap="round" stroke-linejoin="round" stroke-width="1"/>
        <path id="パス_173" data-name="パス 173" d="M-317.014,731.268a11.313,11.313,0,0,0-2.04-1.673l.007-.007c-2-1.387-2.4-3.14-2.923-5.52-.623-2.871-1.4-6.442-5.567-8.98s-7.7-1.591-10.532-.829c-2.494.67-4.3,1.154-6.632-.269s-2.736-3.25-3.285-5.775c-.625-2.87-1.4-6.442-5.57-8.981s-7.7-1.593-10.536-.832c-2.495.67-4.3,1.154-6.637-.272a2.5,2.5,0,0,0-3.436.834,2.5,2.5,0,0,0-.141,2.335,2.5,2.5,0,0,0,.975,1.1c4.168,2.54,7.7,1.592,10.535.831,2.5-.669,4.3-1.153,6.639.273s2.735,3.249,3.285,5.774c.624,2.869,1.4,6.441,5.569,8.982s7.7,1.59,10.532.828c2.494-.67,4.3-1.154,6.633.269s2.732,3.25,3.282,5.773c.573,2.636,1.282,5.86,4.619,8.336-.011.011-.019.025-.03.036.117.059.232.126.348.194.142.1.291.2.442.291a6.465,6.465,0,0,1,.869.756,2.5,2.5,0,0,0,3.535.059A2.5,2.5,0,0,0-317.014,731.268Z" fill="#1a1311"/>
        <path id="パス_174" data-name="パス 174" d="M-383.348,737.7a10.294,10.294,0,0,1,5.01.582c2.426,1.069,4.063,3.583,6.6,4.359a.413.413,0,0,0,.359-.006.42.42,0,0,0,.121-.357,7.365,7.365,0,0,0-5.163-7.022,13.322,13.322,0,0,0-2.544-.346,2.013,2.013,0,0,0-1.829.492" fill="none" stroke="#fff" stroke-linecap="round" stroke-linejoin="round" stroke-width="1"/>
        <path id="パス_175" data-name="パス 175" d="M-358.388,752.479a2.292,2.292,0,0,1,1.645.8,51.339,51.339,0,0,0,5.409,4.753,9.7,9.7,0,0,0,6.773,1.911,2.225,2.225,0,0,0-.613-2.424,8.544,8.544,0,0,0-2.26-1.394c-.823-.42-1.613-.9-2.428-1.338a48.1,48.1,0,0,0-4.627-2.064c1.677-.6,3.568-1.2,5.182-.443a6.846,6.846,0,0,1,2.03,1.7" fill="none" stroke="#fff" stroke-linecap="round" stroke-linejoin="round" stroke-width="1"/>
        <path id="パス_176" data-name="パス 176" d="M-335.819,763.739a11.308,11.308,0,0,0-2.039-1.673l.006-.006c-2-1.388-2.4-3.14-2.922-5.52-.623-2.871-1.4-6.442-5.567-8.981s-7.7-1.59-10.532-.828c-2.494.67-4.3,1.154-6.632-.27s-2.736-3.25-3.286-5.774c-.624-2.87-1.4-6.442-5.569-8.982s-7.7-1.592-10.536-.831c-2.495.669-4.3,1.153-6.637-.272a2.5,2.5,0,0,0-3.436.834,2.5,2.5,0,0,0-.141,2.335,2.489,2.489,0,0,0,.975,1.1c4.168,2.539,7.7,1.592,10.535.831,2.5-.67,4.3-1.153,6.638.272s2.736,3.25,3.285,5.775c.624,2.869,1.4,6.441,5.57,8.981s7.7,1.59,10.531.828c2.495-.669,4.3-1.154,6.634.27s2.732,3.249,3.282,5.772c.573,2.636,1.282,5.86,4.619,8.336-.011.011-.019.025-.03.036.117.059.232.126.348.2.142.1.291.195.442.29a6.6,6.6,0,0,1,.868.757,2.5,2.5,0,0,0,3.535.059A2.5,2.5,0,0,0-335.819,763.739Z" fill="#1a1311"/>
      </g>
      <g id="グループ化_36" data-name="グループ化 36">
        <path id="パス_177" data-name="パス 177" d="M-327.971,637.3a61.543,61.543,0,0,1,61.543-61.543h36.4c1.419,0,2.822.066,4.217.16a61.4,61.4,0,0,0-46.882-21.694h-36.4a61.543,61.543,0,0,0-61.543,61.543h0A61.539,61.539,0,0,0-335.1,671.55v24.707l19.314-19.313c.816.088,1.642.145,2.467.2A61.284,61.284,0,0,1-327.971,637.3Z" fill="#f4d32e" stroke="#1a1311" stroke-linecap="round" stroke-linejoin="round" stroke-width="5"/>
        <path id="パス_178" data-name="パス 178" d="M-225.811,575.919a61.286,61.286,0,0,1,14.661,39.849h0a61.543,61.543,0,0,1-61.543,61.543h-36.4c-1.421,0-2.825-.068-4.221-.165a61.4,61.4,0,0,0,46.886,21.7h36.4a62.347,62.347,0,0,0,6.689-.368l19.313,19.313V693.084A61.54,61.54,0,0,0-168.485,637.3h0A61.535,61.535,0,0,0-225.811,575.919Z" fill="#f4d32e" stroke="#1a1311" stroke-linecap="round" stroke-linejoin="round" stroke-width="5"/>
        <path id="パス_179" data-name="パス 179" d="M-272.693,677.312a61.543,61.543,0,0,0,61.543-61.543h0a61.286,61.286,0,0,0-14.661-39.849c-1.395-.094-2.8-.16-4.217-.16h-36.4A61.543,61.543,0,0,0-327.971,637.3h0a61.284,61.284,0,0,0,14.657,39.844c1.4.1,2.8.165,4.221.165Z" fill="#fff" stroke="#1a1311" stroke-linecap="round" stroke-linejoin="round" stroke-width="5"/>
      </g>
      <g id="グループ化_37" data-name="グループ化 37">
        <line id="線_24" data-name="線 24" x2="52.467" transform="translate(-296.366 610.342)" fill="none" stroke="#1a1311" stroke-linecap="round" stroke-linejoin="round" stroke-width="5"/>
        <line id="線_25" data-name="線 25" x2="52.467" transform="translate(-296.366 627.536)" fill="none" stroke="#1a1311" stroke-linecap="round" stroke-linejoin="round" stroke-width="5"/>
        <line id="線_26" data-name="線 26" x2="52.467" transform="translate(-296.366 644.729)" fill="none" stroke="#1a1311" stroke-linecap="round" stroke-linejoin="round" stroke-width="5"/>
      </g>
    </g>
  </g>
</svg>
