<svg xmlns="http://www.w3.org/2000/svg" width="756.024" height="625.242" viewBox="0 0 756.024 625.242">
  <g id="グループ化_48" data-name="グループ化 48" transform="translate(-1016.765 -1805.358)">
    <path id="パス_105" data-name="パス 105" d="M1016.765,1940.761l282.556-135.4,321.7,96.64-43.555,307.7-417.736,36.014Z" fill="#fff5a5"/>
    <g id="グループ化_45" data-name="グループ化 45" transform="translate(1122.065 1623.962)">
      <g id="グループ化_39" data-name="グループ化 39">
        <rect id="長方形_44" data-name="長方形 44" width="100.651" height="130.416" rx="50.326" transform="translate(293.935 669.541)" stroke-width="5" stroke="#1a1311" stroke-linecap="round" stroke-linejoin="round" fill="#f4d32e"/>
        <path id="パス_180" data-name="パス 180" d="M391.391,804.138a46.6,46.6,0,0,0-43.4-29.641h-7.468a46.6,46.6,0,0,0-43.4,29.641Z" fill="#f4d32e" stroke="#1a1311" stroke-linecap="round" stroke-linejoin="round" stroke-width="5"/>
        <rect id="長方形_45" data-name="長方形 45" width="27.83" height="25.692" transform="translate(329.991 749.931)" stroke-width="5" stroke="#1a1311" stroke-linecap="round" stroke-linejoin="round" fill="#fff"/>
        <path id="パス_181" data-name="パス 181" d="M334.182,695.013a21.461,21.461,0,0,0-20.1,21.417v21.844c0,14.758,14.879,26.883,30.6,26.883a30.974,30.974,0,0,0,30.954-30h.024V721.876" fill="#fff" stroke="#1a1311" stroke-linecap="round" stroke-linejoin="round" stroke-width="5"/>
        <path id="パス_182" data-name="パス 182" d="M334.194,695.218h.1c-.063.718-.1,1.443-.1,2.177a24.482,24.482,0,0,0,24.481,24.481h16.982" fill="#f4d32e" stroke="#1a1311" stroke-linecap="round" stroke-linejoin="round" stroke-width="5"/>
      </g>
      <g id="グループ化_40" data-name="グループ化 40">
        <rect id="長方形_46" data-name="長方形 46" width="89.301" height="30.279" rx="15.14" transform="translate(415.097 650.775)" stroke-width="5" stroke="#1a1311" stroke-linecap="round" stroke-linejoin="round" fill="#f4d32e"/>
        <line id="線_27" data-name="線 27" x1="25.101" y2="25.101" transform="translate(415.466 681.054)" fill="none" stroke="#1a1311" stroke-linecap="round" stroke-linejoin="round" stroke-width="5"/>
      </g>
      <g id="グループ化_41" data-name="グループ化 41">
        <rect id="長方形_47" data-name="長方形 47" width="89.301" height="30.279" rx="15.14" transform="translate(445.097 574.211)" stroke-width="5" stroke="#1a1311" stroke-linecap="round" stroke-linejoin="round" fill="#f4d32e"/>
        <line id="線_28" data-name="線 28" x1="25.101" y2="25.101" transform="translate(445.466 604.49)" fill="none" stroke="#1a1311" stroke-linecap="round" stroke-linejoin="round" stroke-width="5"/>
      </g>
      <g id="グループ化_42" data-name="グループ化 42">
        <rect id="長方形_48" data-name="長方形 48" width="89.301" height="30.279" rx="15.14" transform="translate(321.99 600.49)" stroke-width="5" stroke="#1a1311" stroke-linecap="round" stroke-linejoin="round" fill="#f4d32e"/>
        <line id="線_29" data-name="線 29" x1="25.101" y2="25.101" transform="translate(322.359 630.769)" fill="none" stroke="#1a1311" stroke-linecap="round" stroke-linejoin="round" stroke-width="5"/>
      </g>
      <g id="グループ化_43" data-name="グループ化 43">
        <rect id="長方形_49" data-name="長方形 49" width="89.301" height="30.279" rx="15.14" transform="translate(558.922 530.324)" stroke-width="5" stroke="#1a1311" stroke-linecap="round" stroke-linejoin="round" fill="#f4d32e"/>
        <line id="線_30" data-name="線 30" x1="25.101" y2="25.101" transform="translate(559.29 560.603)" fill="none" stroke="#1a1311" stroke-linecap="round" stroke-linejoin="round" stroke-width="5"/>
      </g>
      <g id="グループ化_44" data-name="グループ化 44">
        <rect id="長方形_50" data-name="長方形 50" width="89.301" height="30.279" rx="15.14" transform="translate(429.441 493.038)" stroke-width="5" stroke="#1a1311" stroke-linecap="round" stroke-linejoin="round" fill="#f4d32e"/>
        <line id="線_31" data-name="線 31" x1="25.101" y2="25.101" transform="translate(429.81 523.318)" fill="none" stroke="#1a1311" stroke-linecap="round" stroke-linejoin="round" stroke-width="5"/>
      </g>
    </g>
  </g>
</svg>
