<?xml version="1.0" encoding="utf-8"?>
<!-- Generator: Adobe Illustrator 23.0.3, SVG Export Plug-In . SVG Version: 6.00 Build 0)  -->
<svg version="1.1" id="レイヤー_1" xmlns="http://www.w3.org/2000/svg" xmlns:xlink="http://www.w3.org/1999/xlink" x="0px"
	 y="0px" viewBox="0 0 364.44 313.12" style="enable-background:new 0 0 364.44 313.12;" xml:space="preserve">
<style type="text/css">
	.st0{fill:#F4D32E;stroke:#1A1311;stroke-width:5;stroke-linecap:round;stroke-linejoin:round;}
	.st1{fill:#FFFFFF;stroke:#1A1311;stroke-width:5;stroke-linecap:round;stroke-linejoin:round;}
	.st2{fill:#F4D32E;stroke:#070203;stroke-width:5;stroke-linecap:round;stroke-linejoin:round;}
	.st3{fill:#F4D32E;}
	.st4{fill:#1A1311;}
	.st5{fill:#FFFFFF;}
	.st6{fill:none;stroke:#1A1311;stroke-width:5;stroke-linecap:round;stroke-linejoin:round;}
</style>
<g id="グループ化_38_1_" transform="translate(419.532 -551.725)">
	<g id="グループ化_33_1_">
		<path id="長方形_41_1_" class="st0" d="M-125.58,720.79L-125.58,720.79c27.79,0,50.33,22.53,50.33,50.33v29.76
			c0,27.79-22.53,50.33-50.33,50.33l0,0c-27.79,0-50.33-22.53-50.33-50.33v-29.76C-175.91,743.32-153.38,720.79-125.58,720.79z"/>
		<path id="パス_164_1_" class="st0" d="M-78.45,855.39c-6.98-17.87-24.21-29.64-43.4-29.64h-7.47
			c-19.19,0-36.42,11.77-43.4,29.64H-78.45z"/>
		<rect id="長方形_42_1_" x="-139.85" y="801.18" class="st1" width="27.83" height="25.69"/>
		<path id="パス_165_1_" class="st1" d="M-135.66,746.27c-11.3,0.72-20.1,10.09-20.1,21.42v21.84c0,14.76,14.88,26.88,30.6,26.88
			c16.73,0,30.43-13.28,30.95-30h0.03v-13.28"/>
		<path id="パス_166_1_" class="st0" d="M-135.65,746.47h0.1c-0.06,0.72-0.1,1.44-0.1,2.18c0,13.52,10.96,24.48,24.48,24.48h16.98
			"/>
	</g>
	<g id="グループ化_36_1_">
		<path id="パス_177_1_" class="st0" d="M-302.47,639.4c0-33.99,27.55-61.54,61.54-61.54h0h36.4c1.42,0,2.82,0.07,4.22,0.16
			c-11.68-13.77-28.82-21.71-46.88-21.69h-36.4c-33.99,0-61.54,27.55-61.54,61.54l0,0c0,23.92,13.86,45.68,35.54,55.78v24.71
			l19.31-19.31c0.82,0.09,1.64,0.15,2.47,0.2C-297.29,668.13-302.49,654-302.47,639.4z"/>
		<path id="パス_178_1_" class="st0" d="M-200.31,578.01c9.48,11.11,14.68,25.24,14.66,39.85l0,0c0,33.99-27.55,61.54-61.54,61.54
			l0,0h-36.4c-1.42,0-2.83-0.07-4.22-0.16c11.68,13.78,28.83,21.71,46.89,21.7h36.4c2.23,0,4.47-0.13,6.69-0.37l19.31,19.31v-24.71
			c21.68-10.11,35.54-31.86,35.54-55.78l0,0C-142.99,607.05-168.04,580.23-200.31,578.01z"/>
		<path id="パス_179_1_" class="st1" d="M-247.19,679.41c33.99,0,61.54-27.55,61.54-61.54l0,0c0.02-14.61-5.18-28.74-14.66-39.85
			c-1.4-0.09-2.8-0.16-4.22-0.16h-36.4c-33.99,0-61.54,27.55-61.54,61.54l0,0c-0.02,14.6,5.18,28.73,14.66,39.84
			c1.4,0.1,2.8,0.16,4.22,0.16L-247.19,679.41z"/>
	</g>
	<g id="グループ化_29_1_">
		<path id="パス_149_1_" class="st2" d="M-304.22,757.64l-23.16,46.03l-52.74-2.61l-12.39-26.01c0-26.46,10.03-48.95,36.49-48.95"
			/>
		<path id="パス_150_1_" class="st0" d="M-308.29,855.28c-6.65-17.02-23.05-28.22-41.32-28.22h-7.11
			c-18.27,0-34.67,11.2-41.32,28.22H-308.29z"/>
		<rect id="長方形_36_1_" x="-366.74" y="803.67" class="st1" width="26.49" height="24.46"/>
		<path id="パス_151_1_" class="st1" d="M-323.27,787.57v2.03h-0.02c-0.5,15.92-13.55,28.56-29.47,28.56
			c-14.96,0-29.13-11.54-29.13-25.59v-20.79c-0.01-5.95,2.59-11.61,7.11-15.49"/>
	</g>
	<path id="パス_157_1_" class="st0" d="M-314.61,754.59"/>
	<path class="st3" d="M-336.3,742.65c-0.97,0-1.94-0.4-2.63-1.2c-0.72-0.82-1.32-1.73-1.78-2.72c-0.6,0.01-1.17-0.05-1.75-0.17
		c-1.25-0.27-2.25-1.19-2.62-2.42c-0.02-0.08-0.05-0.17-0.06-0.25c-0.35-0.1-0.69-0.22-1.03-0.37c-0.9-0.39-1.58-1.12-1.9-2
		c-1.77-0.18-3.14-1.67-3.15-3.48c0-1.93,1.56-3.5,3.5-3.5l5.44-0.01c0.79-0.03,1.58,0.17,2.26,0.57c0.26,0.15,0.5,0.34,0.71,0.55
		c0.43,0.43,0.75,0.94,0.95,1.5c1.22,0.61,2.19,1.54,2.78,2.75c0.41,0.77,0.58,1.64,0.52,2.49c0.23,0.37,0.43,0.76,0.61,1.17
		c0.2,0.48,0.47,0.91,0.8,1.29c1.27,1.45,1.13,3.67-0.33,4.94C-334.66,742.36-335.48,742.65-336.3,742.65z"/>
	<path class="st3" d="M-313.11,754.57c-0.13,0-0.26-0.01-0.39-0.02c-0.06-0.01-0.12-0.01-0.17-0.02c-0.46-0.07-0.91-0.2-1.34-0.39
		c-2.32-0.99-4.44-2.36-6.29-4.07c-0.05-0.04-0.1-0.09-0.14-0.14c-0.57-0.58-1.19-1.12-1.84-1.6c-0.01-0.01-0.05-0.02-0.09-0.01
		c-1.89,0.42-3.76-0.77-4.17-2.66c-0.42-1.89,0.77-3.76,2.66-4.17c1.66-0.37,3.4-0.13,4.88,0.66c1.09-0.73,2.53-0.8,3.71-0.11
		c0.41,0.24,0.87,0.39,1.35,0.42c1.66,0.12,2.96,1.39,3.2,2.97c0.91,0.54,1.69,1.27,2.28,2.17c0.08,0.13,0.16,0.26,0.22,0.39
		c0.72,1.49,0.57,3.34-0.38,4.71C-310.45,753.89-311.73,754.57-313.11,754.57z M-312.1,747.77L-312.1,747.77L-312.1,747.77z"/>
	<path id="パス_160_1_" class="st4" d="M-302.81,755.74c-0.58-0.6-1.23-1.14-1.94-1.59l0.01-0.01c-1.9-1.32-2.28-2.99-2.78-5.26
		c-0.59-2.73-1.33-6.13-5.3-8.55c-3.97-2.42-7.33-1.51-10.03-0.79c-2.37,0.64-4.09,1.1-6.31-0.26c-2.22-1.36-2.6-3.09-3.13-5.5
		c-0.6-2.73-1.33-6.13-5.3-8.55s-7.33-1.52-10.03-0.79c-2.38,0.64-4.09,1.1-6.32-0.26c-1.12-0.68-2.59-0.33-3.27,0.79l0,0
		c-0.41,0.67-0.46,1.51-0.13,2.22c0.2,0.43,0.52,0.8,0.93,1.05c3.97,2.42,7.33,1.52,10.03,0.79c2.38-0.64,4.09-1.1,6.32,0.26
		s2.6,3.09,3.13,5.5c0.59,2.73,1.33,6.13,5.3,8.55c3.97,2.42,7.33,1.51,10.03,0.79c2.37-0.64,4.09-1.1,6.31,0.26
		c2.22,1.36,2.6,3.09,3.13,5.49c0.54,2.51,1.22,5.58,4.4,7.94c-0.01,0.01-0.02,0.02-0.03,0.03c0.11,0.06,0.22,0.12,0.33,0.19
		c0.14,0.1,0.28,0.19,0.42,0.28c0.3,0.22,0.57,0.46,0.83,0.72c0.91,0.94,2.42,0.97,3.37,0.06
		C-301.92,758.2-301.89,756.7-302.81,755.74C-302.81,755.75-302.81,755.75-302.81,755.74z"/>
	<path class="st5" d="M-354.74,769.61c-0.39,0-0.78-0.07-1.16-0.2c-1.83-0.59-3.18-1.72-4.37-2.71c-0.73-0.61-1.42-1.19-2.07-1.5
		c-1.03-0.38-2.14-0.5-3.23-0.35c-1.63,0.22-3.15-0.94-3.37-2.58c-0.22-1.62,0.9-3.1,2.5-3.36c0.14-0.52,0.42-1.02,0.85-1.41
		c1.12-1.05,2.65-1.51,4.14-1.27c0.93,0.05,1.86,0.18,2.77,0.4c0.07,0.02,0.14,0.04,0.21,0.06c4.16,1.3,6.97,5.08,7.02,9.43
		c0.05,0.96-0.31,1.9-1,2.58c-0.23,0.23-0.49,0.41-0.77,0.56C-353.71,769.49-354.22,769.61-354.74,769.61z"/>
	<path class="st5" d="M-329.93,786.09c-2.65,0-5.22-0.86-7.36-2.47c-1.91-1.45-3.71-3.04-5.39-4.73c-1.48-0.24-2.58-1.56-2.51-3.1
		c0.08-1.65,1.47-2.94,3.14-2.86c0.76,0.04,1.5,0.24,2.16,0.59c0.13-0.07,0.26-0.13,0.4-0.18c1.67-0.6,4.47-1.6,7.22-0.31
		c0.06,0.03,0.12,0.06,0.17,0.09c1.09,0.6,2.04,1.4,2.82,2.36c0.53,0.65,0.74,1.46,0.65,2.23c0.34,0.23,0.66,0.48,0.97,0.75
		c1.62,1.44,2.17,3.62,1.45,5.61c-0.4,1.09-1.38,1.85-2.53,1.96C-329.14,786.07-329.54,786.09-329.93,786.09z M-342.34,778.93
		L-342.34,778.93L-342.34,778.93z"/>
	<path id="パス_163_1_" class="st4" d="M-320.71,786.66c-0.58-0.6-1.23-1.14-1.94-1.59l0.01-0.01c-1.9-1.32-2.28-2.99-2.78-5.26
		c-0.59-2.73-1.33-6.13-5.3-8.55c-3.97-2.42-7.33-1.51-10.03-0.79c-2.37,0.64-4.09,1.1-6.31-0.26c-2.22-1.35-2.6-3.09-3.13-5.5
		c-0.6-2.73-1.33-6.13-5.3-8.55c-3.97-2.42-7.33-1.52-10.03-0.79c-2.38,0.64-4.09,1.1-6.32-0.26c-1.12-0.68-2.59-0.33-3.27,0.79l0,0
		c-0.41,0.67-0.46,1.51-0.13,2.22c0.2,0.43,0.52,0.8,0.93,1.05c3.97,2.42,7.33,1.52,10.03,0.79c2.38-0.64,4.09-1.1,6.32,0.26
		c2.23,1.36,2.6,3.09,3.13,5.5c0.59,2.73,1.33,6.13,5.3,8.55s7.33,1.51,10.03,0.79c2.37-0.64,4.09-1.1,6.31,0.26
		c2.22,1.36,2.6,3.09,3.12,5.49c0.55,2.51,1.22,5.58,4.4,7.94c-0.01,0.01-0.02,0.02-0.03,0.03c0.11,0.06,0.22,0.12,0.33,0.19
		c0.14,0.1,0.28,0.18,0.42,0.28c0.3,0.22,0.57,0.46,0.83,0.72c0.91,0.94,2.42,0.97,3.37,0.06
		C-319.82,789.11-319.8,787.61-320.71,786.66L-320.71,786.66z"/>
	<line class="st6" x1="-262.36" y1="601.96" x2="-262.36" y2="635.75"/>
	<circle cx="-262.45" cy="649.74" r="4.79"/>
	<line class="st6" x1="-244.36" y1="601.96" x2="-244.36" y2="635.75"/>
	<circle cx="-244.45" cy="649.74" r="4.79"/>
	<line class="st6" x1="-225.36" y1="601.96" x2="-225.36" y2="635.75"/>
	<circle cx="-225.45" cy="649.74" r="4.79"/>
</g>
</svg>
