<svg xmlns="http://www.w3.org/2000/svg" width="1934.154" height="59" viewBox="0 0 1934.154 59">
  <g id="グループ化_51" data-name="グループ化 51" transform="translate(185.5 -5197.5)">
    <path id="前面オブジェクトで型抜き_3" data-name="前面オブジェクトで型抜き 3" d="M2026.154,58H93V12.943a25.1,25.1,0,0,0,6.434,4.97,19.342,19.342,0,0,0,9.09,2.1c9.245,0,13.9-5.171,18.409-10.171C131.494,4.78,135.8,0,144.6,0s13.1,4.778,17.665,9.837c4.507,5,9.168,10.174,18.411,10.174s13.9-5.171,18.409-10.171C203.645,4.78,207.954,0,216.749,0s13.1,4.78,17.666,9.84c4.506,5,9.166,10.171,18.409,10.171s13.9-5.171,18.409-10.171C275.792,4.78,280.1,0,288.9,0S302,4.779,306.559,9.839c4.506,5,9.166,10.173,18.407,10.173s13.9-5.171,18.407-10.171C347.935,4.78,352.244,0,361.038,0S374.144,4.78,378.7,9.84c4.506,5,9.166,10.171,18.411,10.171s13.9-5.171,18.407-10.171C420.083,4.78,424.391,0,433.187,0s13.1,4.777,17.659,9.835l0,.005c4.506,5,9.165,10.171,18.407,10.171s13.9-5.171,18.408-10.171C492.228,4.78,496.536,0,505.329,0s13.1,4.778,17.663,9.837c4.507,5,9.167,10.174,18.41,10.174s13.9-5.171,18.408-10.171C564.372,4.78,568.68,0,577.477,0s13.1,4.779,17.666,9.838c4.507,5,9.167,10.174,18.412,10.174s13.9-5.171,18.409-10.171C636.525,4.78,640.834,0,649.629,0s13.106,4.78,17.667,9.84c4.505,5,9.164,10.171,18.409,10.171s13.9-5.171,18.41-10.171C708.675,4.78,712.982,0,721.781,0s13.1,4.78,17.666,9.84c4.5,5,9.163,10.172,18.41,10.172s13.9-5.171,18.409-10.171C780.828,4.78,785.137,0,793.932,0s13.1,4.778,17.664,9.836l0,0c4.507,5,9.168,10.171,18.411,10.171s13.9-5.171,18.41-10.171l0,0C852.987,4.778,857.295,0,866.091,0s13.1,4.78,17.665,9.84c4.506,5,9.166,10.171,18.408,10.171s13.9-5.171,18.409-10.171C925.133,4.78,929.441,0,938.238,0s13.106,4.779,17.667,9.838c4.505,5,9.164,10.173,18.412,10.173s13.9-5.171,18.411-10.171C997.291,4.78,1001.6,0,1010.4,0s13.106,4.779,17.667,9.838c1.249,1.386,2.539,2.817,3.935,4.138V12.943a25.346,25.346,0,0,0,6.255,4.876A19.121,19.121,0,0,0,1047,20.006c8.9-.192,13.469-5.262,17.888-10.165l0,0C1069.454,4.778,1073.762,0,1082.558,0c.179,0,.348,0,.519.005s.342-.005.522-.005c8.8,0,13.1,4.779,17.666,9.839,4.506,5,9.165,10.172,18.409,10.172s13.9-5.171,18.409-10.171c4.562-5.061,8.871-9.84,17.666-9.84s13.1,4.78,17.666,9.84c4.506,5,9.165,10.171,18.409,10.171s13.9-5.171,18.409-10.171C1214.793,4.78,1219.1,0,1227.9,0s13.1,4.78,17.662,9.84c4.505,5,9.164,10.171,18.405,10.171s13.9-5.171,18.408-10.171c4.561-5.061,8.869-9.84,17.664-9.84s13.107,4.78,17.667,9.84c4.506,5,9.166,10.171,18.411,10.171s13.9-5.171,18.407-10.171c4.562-5.061,8.87-9.84,17.666-9.84s13.1,4.779,17.662,9.84c4.507,5,9.167,10.172,18.409,10.172s13.9-5.171,18.407-10.171C1431.227,4.78,1435.536,0,1444.33,0s13.1,4.78,17.665,9.84c4.505,5,9.163,10.172,18.408,10.172s13.9-5.171,18.408-10.171C1503.372,4.78,1507.68,0,1516.477,0s13.1,4.779,17.666,9.838c4.507,5,9.167,10.174,18.412,10.174s13.9-5.171,18.408-10.171c4.562-5.06,8.871-9.84,17.666-9.84s13.106,4.78,17.667,9.84c4.506,5,9.166,10.171,18.409,10.171s13.9-5.171,18.411-10.171c4.561-5.061,8.869-9.84,17.666-9.84s13.1,4.78,17.666,9.84c4.5,5,9.163,10.172,18.41,10.172s13.9-5.171,18.41-10.171c4.562-5.061,8.871-9.84,17.667-9.84s13.1,4.779,17.666,9.838c4.508,5,9.17,10.173,18.413,10.173s13.9-5.171,18.41-10.171c4.563-5.06,8.873-9.84,17.669-9.84s13.1,4.779,17.664,9.84c4.507,5,9.167,10.172,18.409,10.172s13.9-5.171,18.41-10.171c4.561-5.061,8.869-9.84,17.666-9.84s13.1,4.779,17.666,9.838c4.507,5,9.167,10.174,18.412,10.174s13.9-5.171,18.411-10.171C1936.291,4.78,1940.6,0,1949.4,0s13.108,4.78,17.67,9.84c4.506,5,9.166,10.171,18.411,10.171s13.9-5.171,18.411-10.171c4.563-5.061,8.873-9.84,17.669-9.84a20.23,20.23,0,0,1,4.6.5V58Z" transform="translate(-278 5198)" fill="#868686" stroke="rgba(0,0,0,0)" stroke-width="1"/>
  </g>
</svg>
