<svg id="グループ化_11" data-name="グループ化 11" xmlns="http://www.w3.org/2000/svg" width="1933.154" height="369.339" viewBox="0 0 1933.154 369.339">
  <g id="グループ化_9" data-name="グループ化 9" transform="translate(0 0)">
    <path id="パス_106" data-name="パス 106" d="M-308.914,901.538c9.241,0,13.9-5.17,18.409-10.171,4.562-5.061,8.87-9.841,17.666-9.841s13.1,4.78,17.667,9.841c4.507,5,9.167,10.171,18.408,10.171s13.9-5.17,18.409-10.171c4.562-5.061,8.871-9.841,17.666-9.841s13.1,4.78,17.666,9.841c4.507,5,9.167,10.171,18.409,10.171s13.9-5.17,18.408-10.171c4.561-5.061,8.87-9.841,17.666-9.841s13.1,4.78,17.663,9.841c4.506,5,9.166,10.171,18.4,10.171s13.9-5.17,18.407-10.171c4.562-5.061,8.87-9.841,17.665-9.841s13.106,4.78,17.667,9.841c4.507,5,9.168,10.171,18.41,10.171s13.9-5.17,18.407-10.171c4.561-5.061,8.869-9.841,17.665-9.841s13.1,4.78,17.664,9.841c4.507,5,9.167,10.171,18.407,10.171s13.9-5.17,18.407-10.171c4.562-5.061,8.87-9.841,17.665-9.841s13.1,4.78,17.666,9.841c4.506,5,9.166,10.171,18.407,10.171s13.9-5.17,18.408-10.171c4.561-5.061,8.87-9.841,17.666-9.841s13.1,4.78,17.668,9.841c4.507,5,9.168,10.171,18.41,10.171s13.9-5.17,18.408-10.171c4.562-5.061,8.87-9.841,17.666-9.841s13.106,4.78,17.667,9.841c4.507,5,9.168,10.171,18.409,10.171s13.9-5.17,18.41-10.171c4.561-5.061,8.87-9.841,17.666-9.841s13.105,4.78,17.667,9.841c4.506,5,9.168,10.171,18.409,10.171s13.9-5.17,18.409-10.171c4.562-5.061,8.87-9.841,17.667-9.841s13.105,4.78,17.668,9.841c4.508,5,9.169,10.171,18.411,10.171s13.9-5.17,18.41-10.171c4.563-5.061,8.871-9.841,17.669-9.841s13.1,4.78,17.665,9.841c4.507,5,9.167,10.171,18.408,10.171s13.9-5.17,18.409-10.171c4.561-5.061,8.87-9.841,17.666-9.841s13.106,4.78,17.669,9.841c4.506,5,9.168,10.171,18.41,10.171s13.9-5.17,18.411-10.171c4.562-5.061,8.871-9.841,17.668-9.841s13.107,4.78,17.67,9.841c4.508,5,9.169,10.171,18.411,10.171s13.9-5.17,18.411-10.171c4.563-5.061,8.871-9.841,17.669-9.841a20.371,20.371,0,0,1,4.6.5v368.841H-324.438v-356.4C-320.668,898.3-316.226,901.538-308.914,901.538Z" transform="translate(324.438 -881.526)" fill="#868686"/>
  </g>
  <g id="グループ化_10" data-name="グループ化 10" transform="translate(939 0)">
    <path id="パス_106-2" data-name="パス 106" d="M-308.914,901.538c9.241,0,13.9-5.17,18.409-10.171,4.562-5.061,8.87-9.841,17.666-9.841s13.1,4.78,17.667,9.841c4.507,5,9.167,10.171,18.408,10.171s13.9-5.17,18.409-10.171c4.562-5.061,8.871-9.841,17.666-9.841s13.1,4.78,17.666,9.841c4.507,5,9.167,10.171,18.409,10.171s13.9-5.17,18.408-10.171c4.561-5.061,8.87-9.841,17.666-9.841s13.1,4.78,17.663,9.841c4.506,5,9.166,10.171,18.4,10.171s13.9-5.17,18.407-10.171c4.562-5.061,8.87-9.841,17.665-9.841s13.106,4.78,17.667,9.841c4.507,5,9.168,10.171,18.41,10.171s13.9-5.17,18.407-10.171c4.561-5.061,8.869-9.841,17.665-9.841s13.1,4.78,17.664,9.841c4.507,5,9.167,10.171,18.407,10.171s13.9-5.17,18.407-10.171c4.562-5.061,8.87-9.841,17.665-9.841s13.1,4.78,17.666,9.841c4.506,5,9.166,10.171,18.407,10.171s13.9-5.17,18.408-10.171c4.561-5.061,8.87-9.841,17.666-9.841s13.1,4.78,17.668,9.841c4.507,5,9.168,10.171,18.41,10.171s13.9-5.17,18.408-10.171c4.562-5.061,8.87-9.841,17.666-9.841s13.106,4.78,17.667,9.841c4.507,5,9.168,10.171,18.409,10.171s13.9-5.17,18.41-10.171c4.561-5.061,8.87-9.841,17.666-9.841s13.105,4.78,17.667,9.841c4.506,5,9.168,10.171,18.409,10.171s13.9-5.17,18.409-10.171c4.562-5.061,8.87-9.841,17.667-9.841s13.105,4.78,17.668,9.841c4.508,5,9.169,10.171,18.411,10.171s13.9-5.17,18.41-10.171c4.563-5.061,8.871-9.841,17.669-9.841s13.1,4.78,17.665,9.841c4.507,5,9.167,10.171,18.408,10.171s13.9-5.17,18.409-10.171c4.561-5.061,8.87-9.841,17.666-9.841s13.106,4.78,17.669,9.841c4.506,5,9.168,10.171,18.41,10.171s13.9-5.17,18.411-10.171c4.562-5.061,8.871-9.841,17.668-9.841s13.107,4.78,17.67,9.841c4.508,5,9.169,10.171,18.411,10.171s13.9-5.17,18.411-10.171c4.563-5.061,8.871-9.841,17.669-9.841a20.371,20.371,0,0,1,4.6.5v368.841H-324.438v-356.4C-320.668,898.3-316.226,901.538-308.914,901.538Z" transform="translate(324.438 -881.526)" fill="#868686"/>
  </g>
</svg>
