<svg xmlns="http://www.w3.org/2000/svg" width="262.168" height="63.042" viewBox="0 0 262.168 63.042">
  <g id="グループ化_15" data-name="グループ化 15" transform="translate(-157.437 -64.867)">
    <path id="パス_113" data-name="パス 113" d="M188.016,80.7l-.37-.2.006-.274a15.028,15.028,0,1,0-30.051-.16l.017,1.873a1.732,1.732,0,0,0-.046.381l-.123,14.236a1.663,1.663,0,0,0,.007.173l-.018,1.942a20.676,20.676,0,0,0,20.688,20.87h0a20.652,20.652,0,0,0,5.745-.819l.051-.014A20.682,20.682,0,0,0,188.016,80.7Zm-9.891,33.6a15.432,15.432,0,0,1-14.189-21.527l.207-.482.442.28a15.084,15.084,0,0,0,8.083,2.348h0A14.915,14.915,0,0,0,186.2,86.308l.224-.473.432.3a15.443,15.443,0,0,1-8.729,28.174Zm2.9-30.6.584.112-.27.529a9.847,9.847,0,0,1-5.985,4.964,9.657,9.657,0,0,1-2.69.38,9.859,9.859,0,0,1-5.01-1.368l-.511-.3.433-.407a15.237,15.237,0,0,1,6.215-3.565l.035-.01a15.354,15.354,0,0,1,4.277-.613A15.524,15.524,0,0,1,181.021,83.7Zm1.19-5.745.131.644-.647-.114a20.457,20.457,0,0,0-9.332.51l-.051.014a20.426,20.426,0,0,0-8.108,4.555l-.485.442-.233-.611c-.093-.243-.189-.5-.265-.769a9.793,9.793,0,0,1,9.4-12.515,9.841,9.841,0,0,1,9.407,7.066C182.1,77.438,182.158,77.7,182.211,77.956Z" fill="#444"/>
    <path id="パス_114" data-name="パス 114" d="M345.6,97.228h-1.787a1.73,1.73,0,0,0-1.728,1.728v11.052l-.717-.546a15.018,15.018,0,1,0-9.11,26.989h.038a15,15,0,0,0,15-14.42l.03-.616V98.956A1.73,1.73,0,0,0,345.6,97.228Zm-13.3,14.4h.024a9.8,9.8,0,1,1-.024,0Z" transform="translate(-80.318 -16.263)" fill="#444"/>
    <path id="パス_115" data-name="パス 115" d="M414.083,97.228H412.3a1.73,1.73,0,0,0-1.728,1.728V110l-.717-.547a15.022,15.022,0,1,0-9.109,27h.038a14.968,14.968,0,0,0,15-14.422l.03-.62V98.956A1.729,1.729,0,0,0,414.083,97.228Zm-13.3,14.4h.023a9.8,9.8,0,1,1-.023,0Z" transform="translate(-114.735 -16.263)" fill="#444"/>
    <path id="パス_116" data-name="パス 116" d="M277.478,124.827H275.69a1.73,1.73,0,0,0-1.728,1.728v7.993a9.787,9.787,0,0,1-9.661,9.889h-.131a9.788,9.788,0,0,1-9.785-9.692v-8.191a1.73,1.73,0,0,0-1.728-1.728h-1.788a1.73,1.73,0,0,0-1.728,1.728l0,8.061.027.654a15,15,0,0,0,15,14.411h.161a15,15,0,0,0,14.845-14.385l.033-.63v-8.11A1.73,1.73,0,0,0,277.478,124.827Z" transform="translate(-46.085 -30.132)" fill="#444"/>
    <path id="パス_117" data-name="パス 117" d="M561.436,124.827h-1.787a1.73,1.73,0,0,0-1.728,1.728v7.994a9.788,9.788,0,0,1-9.66,9.888h-.132a9.79,9.79,0,0,1-9.785-9.692v-8.191a1.73,1.73,0,0,0-1.727-1.728h-1.787a1.73,1.73,0,0,0-1.728,1.728l0,8.059.026.656a15,15,0,0,0,15,14.411h.161a15,15,0,0,0,14.845-14.387l.032-.627v-8.111A1.73,1.73,0,0,0,561.436,124.827Z" transform="translate(-188.787 -30.132)" fill="#444"/>
    <path id="パス_118" data-name="パス 118" d="M482.826,124.827h-1.787a1.73,1.73,0,0,0-1.728,1.728v7.994a9.789,9.789,0,0,1-9.661,9.888h-.131a9.789,9.789,0,0,1-9.785-9.692v-8.191a1.73,1.73,0,0,0-1.728-1.728h-1.787a1.73,1.73,0,0,0-1.728,1.728l0,8.059.026.656a15,15,0,0,0,15.006,14.411h.151a14.881,14.881,0,0,0,8.918-3.066l.717-.546v10.245a1.73,1.73,0,0,0,1.728,1.728h1.787a1.73,1.73,0,0,0,1.728-1.728V126.555A1.73,1.73,0,0,0,482.826,124.827Z" transform="translate(-149.282 -30.132)" fill="#444"/>
    <path id="パス_119" data-name="パス 119" d="M617.443,97.228a14.967,14.967,0,0,0-15,14.422l-.03.621v22.451a1.73,1.73,0,0,0,1.728,1.728h1.786a1.73,1.73,0,0,0,1.728-1.728V123.67l.717.546a15.021,15.021,0,1,0,9.073-26.988Zm9.789,15.056a9.784,9.784,0,0,1-16.725,6.878,9.784,9.784,0,0,1,6.936-16.691h.023a9.789,9.789,0,0,1,9.766,9.813Z" transform="translate(-223.618 -16.263)" fill="#444"/>
    <rect id="長方形_25" data-name="長方形 25" width="5.243" height="28.613" rx="2.622" transform="translate(413.671 80.989)" fill="#444"/>
    <path id="長方形_26" data-name="長方形 26" d="M3.244,0h.137A3.245,3.245,0,0,1,6.626,3.245v0A3.244,3.244,0,0,1,3.382,6.489H3.245A3.245,3.245,0,0,1,0,3.244v0A3.244,3.244,0,0,1,3.244,0Z" transform="translate(412.979 113.699)" fill="#444"/>
  </g>
</svg>
