<svg xmlns="http://www.w3.org/2000/svg" width="267.403" height="215.139" viewBox="0 0 267.403 215.139">
  <g id="グループ化_20" data-name="グループ化 20" transform="translate(-111.047 -363.586)">
    <g id="グループ化_17" data-name="グループ化 17">
      <path id="パス_122" data-name="パス 122" d="M163.424,448.257a45.776,45.776,0,0,1-32.015,13" fill="none" stroke="#1a1311" stroke-linecap="round" stroke-linejoin="round" stroke-width="5"/>
      <line id="線_7" data-name="線 7" y1="80.28" x2="86.65" transform="translate(162.924 368.554)" fill="none" stroke="#1a1311" stroke-linecap="round" stroke-linejoin="round" stroke-width="5"/>
      <path id="パス_123" data-name="パス 123" d="M264.813,386.194a11.484,11.484,0,1,1,16.952,15.381" fill="none" stroke="#1a1311" stroke-linecap="round" stroke-linejoin="round" stroke-width="5"/>
      <line id="線_8" data-name="線 8" y1="45.462" x2="49.069" transform="translate(216.016 385.49)" fill="none" stroke="#1a1311" stroke-linecap="round" stroke-linejoin="round" stroke-width="5"/>
      <path id="パス_124" data-name="パス 124" d="M282.209,401.9a11.485,11.485,0,1,1,17.1,15.178" fill="none" stroke="#1a1311" stroke-linecap="round" stroke-linejoin="round" stroke-width="5"/>
      <line id="線_9" data-name="線 9" y1="45.462" x2="49.069" transform="translate(233.097 401.426)" fill="none" stroke="#1a1311" stroke-linecap="round" stroke-linejoin="round" stroke-width="5"/>
      <path id="パス_125" data-name="パス 125" d="M299.722,417.388a11.484,11.484,0,1,1,16.987,15.335" fill="none" stroke="#1a1311" stroke-linecap="round" stroke-linejoin="round" stroke-width="5"/>
      <line id="線_10" data-name="線 10" y1="45.462" x2="49.069" transform="translate(250.356 417.197)" fill="none" stroke="#1a1311" stroke-linecap="round" stroke-linejoin="round" stroke-width="5"/>
      <line id="線_11" data-name="線 11" y1="70.352" x2="76.798" transform="translate(240.022 432.843)" fill="none" stroke="#1a1311" stroke-linecap="round" stroke-linejoin="round" stroke-width="5"/>
      <path id="パス_126" data-name="パス 126" d="M303.789,508.7a11.673,11.673,0,0,1-8.211,19.927" fill="none" stroke="#1a1311" stroke-linecap="round" stroke-linejoin="round" stroke-width="5"/>
      <line id="線_12" data-name="線 12" x2="55.42" y2="2.108" transform="translate(240.022 503.195)" fill="none" stroke="#1a1311" stroke-linecap="round" stroke-linejoin="round" stroke-width="5"/>
      <line id="線_13" data-name="線 13" x2="164.484" transform="translate(131.409 528.602)" fill="none" stroke="#1a1311" stroke-linecap="round" stroke-linejoin="round" stroke-width="5"/>
      <path id="パス_127" data-name="パス 127" d="M295.183,505.3a11.672,11.672,0,0,1,12.025,11.624" fill="none" stroke="#1a1311" stroke-linecap="round" stroke-linejoin="round" stroke-width="5"/>
      <path id="パス_128" data-name="パス 128" d="M248.875,369.147a11.485,11.485,0,0,1,15.642,16.82" fill="none" stroke="#1a1311" stroke-linecap="round" stroke-linejoin="round" stroke-width="5"/>
    </g>
    <g id="グループ化_19" data-name="グループ化 19">
      <path id="パス_129" data-name="パス 129" d="M347.995,483.669l.136-.991a45.186,45.186,0,0,1-29.4-16.792l.038-.034-70.766-93.434.031-.024a11.99,11.99,0,0,0-20.949,10.967A11.988,11.988,0,0,0,207.441,395.9a11.99,11.99,0,0,0-19.961,12.268,11.984,11.984,0,0,0-18.415,15.2l-.139.1,71.575,94.5-54.281-7.493h0a11.928,11.928,0,0,0-7.611,1.181l.246-.418-2.01,1.522a12.089,12.089,0,0,0-4.7,7.981l0,.028-.355,2.5.24-.408a12.182,12.182,0,0,0,10.461,11.651l0-.026,104.722,14.457,29.566-5.8" fill="#f4d32e"/>
      <g id="グループ化_18" data-name="グループ化 18">
        <path id="パス_130" data-name="パス 130" d="M318.125,465.919a45.774,45.774,0,0,0,29.938,17.254" fill="none" stroke="#1a1311" stroke-linecap="round" stroke-linejoin="round" stroke-width="5"/>
        <line id="線_14" data-name="線 14" x1="71.319" y1="94.163" transform="translate(247.055 371.991)" fill="none" stroke="#1a1311" stroke-linecap="round" stroke-linejoin="round" stroke-width="5"/>
        <path id="パス_131" data-name="パス 131" d="M228.972,386.7A11.484,11.484,0,1,0,209.6,398.89" fill="none" stroke="#1a1311" stroke-linecap="round" stroke-linejoin="round" stroke-width="5"/>
        <line id="線_15" data-name="線 15" x1="40.387" y1="53.324" transform="translate(228.827 385.961)" fill="none" stroke="#1a1311" stroke-linecap="round" stroke-linejoin="round" stroke-width="5"/>
        <path id="パス_132" data-name="パス 132" d="M209.1,399.133a11.485,11.485,0,1,0-19.49,11.962" fill="none" stroke="#1a1311" stroke-linecap="round" stroke-linejoin="round" stroke-width="5"/>
        <line id="線_16" data-name="線 16" x1="40.387" y1="53.324" transform="translate(209.228 398.673)" fill="none" stroke="#1a1311" stroke-linecap="round" stroke-linejoin="round" stroke-width="5"/>
        <path id="パス_133" data-name="パス 133" d="M189.158,411.329a11.485,11.485,0,1,0-19.4,12.137" fill="none" stroke="#1a1311" stroke-linecap="round" stroke-linejoin="round" stroke-width="5"/>
        <line id="線_17" data-name="線 17" x1="40.387" y1="53.324" transform="translate(189.483 411.193)" fill="none" stroke="#1a1311" stroke-linecap="round" stroke-linejoin="round" stroke-width="5"/>
        <line id="線_18" data-name="線 18" x1="72.166" y1="95.281" transform="translate(169.627 423.565)" fill="none" stroke="#1a1311" stroke-linecap="round" stroke-linejoin="round" stroke-width="5"/>
        <path id="パス_134" data-name="パス 134" d="M177.147,513.159a11.672,11.672,0,0,0,5.409,20.862" fill="none" stroke="#1a1311" stroke-linecap="round" stroke-linejoin="round" stroke-width="5"/>
        <line id="線_19" data-name="線 19" x1="55.938" y1="7.722" transform="translate(185.88 510.935)" fill="none" stroke="#1a1311" stroke-linecap="round" stroke-linejoin="round" stroke-width="5"/>
        <line id="線_20" data-name="線 20" x1="122.272" y1="16.879" transform="translate(182.247 533.953)" fill="none" stroke="#1a1311" stroke-linecap="round" stroke-linejoin="round" stroke-width="5"/>
        <path id="パス_135" data-name="パス 135" d="M186.137,510.969a11.674,11.674,0,0,0-13.5,9.872" fill="none" stroke="#1a1311" stroke-linecap="round" stroke-linejoin="round" stroke-width="5"/>
        <path id="パス_136" data-name="パス 136" d="M247.639,372.7A11.484,11.484,0,0,0,229.3,386.53" fill="none" stroke="#1a1311" stroke-linecap="round" stroke-linejoin="round" stroke-width="5"/>
      </g>
    </g>
    <path id="パス_137" data-name="パス 137" d="M317.894,541.958" fill="none" stroke="#1a1311" stroke-linecap="round" stroke-linejoin="round" stroke-width="5"/>
    <path id="パス_138" data-name="パス 138" d="M348.063,483.173" fill="none" stroke="#1a1311" stroke-linecap="round" stroke-linejoin="round" stroke-width="5"/>
    <rect id="長方形_27" data-name="長方形 27" width="41.869" height="89.489" transform="translate(113.548 449.257)" stroke-width="5" stroke="#1a1311" stroke-linecap="round" stroke-linejoin="round" fill="#f4d32e"/>
    <rect id="長方形_28" data-name="長方形 28" width="41.869" height="89.489" transform="translate(336.983 476.628) rotate(24.299)" stroke-width="5" stroke="#1a1311" stroke-linecap="round" stroke-linejoin="round" fill="#f4d32e"/>
  </g>
</svg>
