<svg xmlns="http://www.w3.org/2000/svg" xmlns:xlink="http://www.w3.org/1999/xlink" width="1918.848" height="1604.9" viewBox="0 0 1918.848 1604.9">
  <defs>
    <linearGradient id="linear-gradient" x1="0.5" x2="0.5" y2="1" gradientUnits="objectBoundingBox">
      <stop offset="0" stop-color="#f2f2f2"/>
      <stop offset="0.291" stop-color="#f0f0f0"/>
      <stop offset="0.64" stop-color="#fcfcfc"/>
      <stop offset="1" stop-color="#fff"/>
    </linearGradient>
  </defs>
  <path id="前面オブジェクトで型抜き_3" data-name="前面オブジェクトで型抜き 3" d="M.5,1604.9h0v0l-.346-.158V70.37c.119.038,14.22,4.555,39.2,11.3C53.937,85.6,69.264,89.5,84.906,93.243c19.566,4.685,39.687,9.151,59.8,13.272,51.218,10.493,102.753,18.853,153.174,24.85,29.938,3.56,59.809,6.315,88.784,8.189,31.872,2.061,63.45,3.106,93.856,3.106,16.181,0,32.357-.3,48.079-.881,15.4-.573,31.1-1.555,46.671-2.92,14.861-1.3,30.1-3,45.3-5.04,28.1-3.774,56.711-8.774,87.473-15.284,25.7-5.44,53.488-12.08,84.946-20.3,28.094-7.34,56.685-15.295,84.334-22.987l.058-.016C942.841,57.022,1010.526,38.19,1083.2,24.021c18.771-3.66,37.477-6.923,55.6-9.7,19.415-2.975,38.941-5.513,58.035-7.542,20.226-2.149,40.7-3.806,60.865-4.925,21.185-1.176,42.747-1.8,64.087-1.85,1.053,0,2.118,0,3.079,0,19.774,0,40.019.471,60.174,1.4,19.278.889,38.982,2.22,58.567,3.957,36.439,3.231,73.8,7.983,111.057,14.123a1653.584,1653.584,0,0,1,189.015,42.855c24.621,7.109,49.161,14.809,72.936,22.888,19.02,6.463,37.594,13.181,55.206,19.966,29.965,11.545,47.01,19.4,47.179,19.48v95.9H.5Z" transform="translate(-0.152 0)" fill="url(#linear-gradient)"/>
</svg>
